<svg width="40" height="42" viewBox="0 0 40 42" fill="none" xmlns="http://www.w3.org/2000/svg">
<path d="M8.24965 41.99C6.63377 41.99 5.03546 41.99 3.41958 41.99C2.83998 41.99 2.19011 42.1123 1.83883 41.5009C1.50512 40.907 1.96178 40.4528 2.22524 39.9812C3.87624 37.2038 5.61507 34.4613 7.19582 31.6489C9.32105 27.8933 9.32105 24.0329 7.31876 20.2073C6.44057 18.5129 6.37032 16.8011 7.07287 15.0717C7.54709 13.9188 8.16183 12.8184 8.79413 11.7353C9.32105 10.827 10.0939 10.0759 11.0072 9.53436C12.0961 8.90551 12.9743 8.08451 13.6769 7.05389C13.7998 6.86175 13.9052 6.58226 14.1687 6.59972C14.4848 6.63466 14.5024 6.98402 14.5726 7.21111C15.2049 9.04525 14.7307 10.7222 13.15 11.9624C12.4123 12.5389 11.9381 13.0804 12.3069 14.0761C12.465 14.4953 12.4299 15.0193 12.2718 15.456C12.0259 16.1198 12.2366 16.5915 12.7284 17.098C15.4157 19.823 17.9625 22.6529 20.4214 25.5875C21.1767 26.4958 22.1251 27.247 22.7398 28.2951C23.056 28.8191 23.056 29.1685 22.5466 29.5353C21.7914 30.0943 21.124 30.7581 20.3512 31.2646C19.2446 31.9983 18.5772 33.0114 18.1732 34.2342C17.418 36.54 16.2236 38.6536 15.1874 40.8371C14.801 41.6756 14.2214 41.99 13.3256 41.9725C11.657 41.9725 9.95335 41.99 8.24965 41.99ZM11.5517 26.9151C11.0774 26.8801 10.7613 27.0374 10.6735 27.3343C10.5681 27.7011 10.7437 27.9457 11.0599 28.1029C11.2179 28.1728 11.3936 28.2252 11.5517 28.2776C13.3607 28.8366 14.9064 29.7624 15.8899 31.4393C16.0831 31.7712 16.3642 32.0682 16.8208 31.8236C17.295 31.5616 17.2248 31.1598 17.014 30.7755C15.8021 28.592 13.7647 27.5439 11.5517 26.9151Z" fill="white"/>
<path d="M31.4515 18.8798C33.5943 18.9147 35.579 19.5086 37.6164 19.6658C38.1082 19.7008 38.6 19.7706 39.1094 19.7706C39.7768 19.7706 39.8998 20.0676 39.7066 20.6615C38.8108 23.5088 37.8799 26.3561 37.3179 29.3082C37.23 29.7274 36.9841 29.8847 36.5977 29.9196C35.9479 29.972 35.4034 29.7798 34.8589 29.4305C32.6634 27.9806 30.5206 26.4609 28.2198 25.1857C27.2538 24.6442 26.2702 24.1027 25.2339 23.7184C24.7597 23.5437 24.6543 23.3516 25.0232 22.9149C26.1121 21.5699 27.447 20.4694 28.7467 19.3514C29.4492 18.7051 30.5909 18.9671 31.4515 18.8798Z" fill="white"/>
<path d="M23.9342 24.6442C24.8651 24.9237 25.8487 25.3779 26.7971 25.8845C29.5546 27.3518 32.0838 29.2209 34.7184 30.8978C35.298 31.2646 35.6142 31.8935 35.9655 32.4525C36.2816 32.9416 35.8074 33.1337 35.5264 33.3259C34.2793 34.1643 32.8742 34.7058 31.4515 35.1251C28.4481 36.0334 29.2912 36.1731 27.7456 33.78C26.0945 31.2297 24.5138 28.6619 22.8979 26.0941C22.7398 25.8321 22.4413 25.5526 22.7398 25.2381C23.0209 24.9237 23.2843 24.522 23.9342 24.6442Z" fill="white"/>
<path d="M12.1664 6.39011C12.2542 7.00149 11.8678 7.38579 11.4287 7.68274C10.1817 8.53868 8.88195 9.32474 7.96863 10.5824C7.7403 10.8794 7.51197 10.7571 7.33633 10.5126C5.4043 7.64781 3.45471 4.78305 1.96178 1.65626C1.75102 1.21956 1.80371 0.957541 2.36575 1.09729C5.12328 1.77854 7.7403 1.11475 10.3398 0.223882C11.4111 -0.142947 11.4111 -0.160415 11.5341 0.957541C11.7449 2.75675 11.9556 4.57343 12.1664 6.39011Z" fill="white"/>
<path d="M20.2809 22.845C20.3863 21.9192 20.7551 21.1157 21.2118 20.3296C21.9495 19.037 22.8452 17.8666 23.8288 16.7487C24.2679 16.2596 24.6719 16.2596 25.2164 16.5216C26.1648 16.9758 26.5336 17.8666 26.9376 18.74C27.043 18.9846 26.9376 19.1942 26.7444 19.3514C25.0934 20.7139 23.8112 22.4258 22.2656 23.8756C21.967 24.1551 21.6158 24.6617 21.1767 24.3647C20.6849 24.0154 20.2106 23.5612 20.2809 22.845Z" fill="white"/>
<path d="M21.1942 11.1414C21.1415 11.2986 21.1064 11.5257 20.9835 11.6655C19.6135 13.5171 18.6475 15.6132 17.3126 17.4823C17.2424 17.5697 17.1897 17.6919 17.1018 17.7618C16.7681 18.0588 16.5574 18.8099 15.9778 18.4431C15.4333 18.0937 14.7834 17.6395 14.9415 16.7836C15.0469 16.1897 15.2401 15.5958 15.486 15.0543C16.2763 13.3249 17.2599 11.7353 18.3313 10.1632C18.6299 9.74398 18.9987 9.44702 19.5081 9.74398C20.1404 10.0933 21.0361 10.1457 21.1942 11.1414Z" fill="white"/>
<path d="M23.741 14.2857C23.7234 14.7398 23.5302 15.1241 23.2316 15.456C21.6158 17.1854 20.1755 19.0545 19.3149 21.2904C19.1568 21.7096 18.9285 21.7795 18.6299 21.4301C18.5772 21.3602 18.507 21.2904 18.4543 21.238C17.1897 19.8755 17.2072 19.8755 18.3137 18.3907C19.4554 16.836 20.2809 15.0892 21.3523 13.4996C21.5982 13.1328 21.7387 12.4865 22.4237 12.7135C23.1614 12.9406 23.6532 13.4647 23.741 14.2857Z" fill="white"/>
<path d="M6.79185 12.4341C4.71931 10.9667 2.76972 9.58676 1.11872 7.83996C0.416161 7.1063 0.258086 6.14556 0.0297559 5.21975C-0.0756274 4.80051 0.100011 4.57343 0.539108 4.76558C1.68076 5.27215 2.80485 5.70885 3.47228 6.94909C4.31534 8.50374 5.4043 9.91866 6.38788 11.4034C6.54595 11.6655 6.80941 11.8925 6.79185 12.4341Z" fill="white"/>
<path d="M13.8525 15.3163C13.6769 14.3206 13.4837 13.4123 14.4497 12.5913C15.7494 11.5083 16.2588 10.006 16.1358 8.29413C16.1183 8.06704 16.0129 7.77008 16.2412 7.64781C16.5047 7.4906 16.733 7.77009 16.9262 7.9273C17.3829 8.29413 17.6463 8.78323 17.3126 9.30727C16.048 11.2462 14.8185 13.2027 13.8525 15.3163Z" fill="white"/>
<path d="M5.17597 14.8796C4.71931 14.8272 4.17483 14.8272 4.12214 14.0935C4.08701 13.4647 3.54253 12.5738 3.9465 12.3118C4.42072 11.9974 4.94764 12.8882 5.49212 13.1502C6.2298 13.5171 6.2298 14.0062 5.80827 14.6176C5.68532 14.8272 5.49212 14.932 5.17597 14.8796Z" fill="white"/>
</svg>
