<svg width="57" height="50" viewBox="0 0 57 50" fill="none" xmlns="http://www.w3.org/2000/svg">
<path fill-rule="evenodd" clip-rule="evenodd" d="M51.579 16.7558C57.5986 21.3201 58.7525 31.0051 54.0118 39.2291C49.2712 47.453 40.3183 51.2798 33.3533 48.3436C31.546 47.5922 29.9195 46.7712 28.001 45.658L37.2876 29.5579L46.5742 13.4579C48.4927 14.5711 50.008 15.573 51.5651 16.7558H51.579Z" fill="url(#paint0_linear_89_18088)"/>
<path fill-rule="evenodd" clip-rule="evenodd" d="M46.5954 13.4569C53.8106 17.6315 55.4927 28.2072 50.3629 37.0991C45.233 45.991 35.2235 49.8177 28.0222 45.657C20.8209 41.4963 19.1248 30.9067 24.2547 22.0149C29.3846 13.123 39.3941 9.29625 46.5954 13.4569Z" fill="url(#paint1_radial_89_18088)"/>
<path fill-rule="evenodd" clip-rule="evenodd" d="M44.1306 16.7428C49.5246 19.8598 50.6507 28.0142 46.6469 34.958C42.6431 41.9017 35.0247 45.0048 29.6307 41.8878C24.2367 38.7708 23.1106 30.6164 27.1144 23.6726C31.1182 16.7289 38.7366 13.6258 44.1306 16.7428Z" fill="url(#paint2_radial_89_18088)"/>
<g style="mix-blend-mode:multiply" opacity="0.5">
<path fill-rule="evenodd" clip-rule="evenodd" d="M30.079 26.4143C33.8743 19.8463 41.0895 16.9101 46.1916 19.8602C46.9284 20.2777 47.5679 20.8064 48.1379 21.4048C47.3176 19.4288 45.983 17.8007 44.1619 16.7432C38.7678 13.6261 31.1495 16.7292 27.1457 23.673C23.1419 30.6167 24.2679 38.7711 29.6619 41.8881C30.0512 42.1108 30.4544 42.3056 30.8714 42.4726C27.1874 38.952 26.7425 32.2448 30.0929 26.4282L30.079 26.4143Z" fill="url(#paint3_radial_89_18088)"/>
</g>
<path fill-rule="evenodd" clip-rule="evenodd" d="M28.8939 24.7024C32.564 18.3431 39.251 15.2121 44.4921 17.1185C44.6589 17.1742 44.8257 17.2437 44.9925 17.3133C44.8535 17.202 44.7006 17.1046 44.5616 17.0072C44.4226 16.9098 44.2835 16.8263 44.1306 16.7428C38.7366 13.6258 31.1182 16.7289 27.1144 23.6726C23.1106 30.6164 24.2367 38.7708 29.6307 41.8878C29.7697 41.9713 29.9226 42.0548 30.0756 42.1244C30.2285 42.2078 30.3953 42.2774 30.5621 42.347C30.4231 42.2357 30.2841 42.1244 30.1451 42.013C25.8771 38.4229 25.2376 31.0478 28.9078 24.6884L28.8939 24.7024Z" fill="url(#paint4_linear_89_18088)"/>
<mask id="mask0_89_18088" style="mask-type:luminance" maskUnits="userSpaceOnUse" x="21" y="11" width="36" height="39">
<path d="M51.5667 16.7552C50.0097 15.5724 48.4944 14.5705 46.5759 13.4572C39.3607 9.28263 29.365 13.1233 24.2352 22.0151C19.1053 30.907 20.8013 41.4966 28.0026 45.6573C29.9211 46.7705 31.5477 47.5776 33.3549 48.3429C40.3199 51.2652 49.2729 47.4384 54.0135 39.2284C58.7541 31.0184 57.5863 21.3333 51.5806 16.7552H51.5667Z" fill="white"/>
</mask>
<g mask="url(#mask0_89_18088)">
<g style="mix-blend-mode:multiply">
<path d="M44.6756 29.9523C49.2478 22.0255 47.7419 12.5873 41.312 8.87149C34.8822 5.15569 25.9632 8.56938 21.391 16.4962C16.8188 24.423 18.3247 33.8612 24.7546 37.577C31.1844 41.2928 40.1034 37.8791 44.6756 29.9523Z" fill="#AA733D"/>
</g>
<g style="mix-blend-mode:multiply">
<path fill-rule="evenodd" clip-rule="evenodd" d="M31.2708 42.7916C26.697 50.7234 17.7718 54.1326 11.3491 50.4172C4.91237 46.7018 3.41094 37.2672 7.98474 29.3355C12.5585 21.4038 21.4837 17.9945 27.9065 21.7099C34.3432 25.4253 35.8446 34.8599 31.2708 42.7916Z" fill="#AA733D"/>
</g>
</g>
<path fill-rule="evenodd" clip-rule="evenodd" d="M43.1346 5.84621C49.1543 10.4104 50.3081 20.0955 45.5675 28.3195C40.8269 36.5295 31.8739 40.3701 24.909 37.434C23.1017 36.6826 21.4751 35.8616 19.5566 34.7483L28.8433 18.6483L38.1299 2.54828C40.0484 3.6615 41.5637 4.66341 43.1207 5.84621H43.1346Z" fill="url(#paint5_linear_89_18088)"/>
<path fill-rule="evenodd" clip-rule="evenodd" d="M38.1423 2.54742C45.3575 6.72202 47.0396 17.2977 41.9097 26.1895C36.7798 35.0814 26.7703 38.9081 19.569 34.7475C12.3538 30.5729 10.6717 19.9972 15.8015 11.1053C20.9314 2.21345 30.941 -1.61326 38.1423 2.54742Z" fill="url(#paint6_radial_89_18088)"/>
<path fill-rule="evenodd" clip-rule="evenodd" d="M35.6882 5.83316C41.0822 8.95019 42.2083 17.1046 38.2045 24.0483C34.2007 30.9921 26.5823 34.0952 21.1883 30.9782C15.7943 27.8611 14.6682 19.7067 18.672 12.763C22.6758 5.81924 30.2942 2.71613 35.6882 5.83316Z" fill="url(#paint7_radial_89_18088)"/>
<g style="mix-blend-mode:multiply" opacity="0.5">
<path fill-rule="evenodd" clip-rule="evenodd" d="M21.5985 15.5165C25.3938 8.94851 32.609 6.01238 37.7111 8.96243C38.4479 9.37989 39.0874 9.90867 39.6574 10.507C38.8372 8.53105 37.5026 6.90296 35.6814 5.8454C30.2874 2.72837 22.669 5.83148 18.6652 12.7752C14.6614 19.719 15.7875 27.8734 21.1815 30.9904C21.5707 31.213 21.9739 31.4078 22.391 31.5748C18.7069 28.0543 18.262 21.3471 21.6124 15.5305L21.5985 15.5165Z" fill="url(#paint8_radial_89_18088)"/>
</g>
<path fill-rule="evenodd" clip-rule="evenodd" d="M20.4515 13.7927C24.1217 7.43342 30.8086 4.30247 36.0497 6.20887C36.2165 6.26453 36.3833 6.33411 36.5502 6.40369C36.4111 6.29237 36.2582 6.19496 36.1192 6.09755C35.9802 6.00014 35.8412 5.91665 35.6882 5.83316C30.2942 2.71613 22.6758 5.81924 18.672 12.763C14.6682 19.7067 15.7943 27.8611 21.1883 30.9781C21.3273 31.0616 21.4803 31.1451 21.6332 31.2147C21.7861 31.2982 21.9529 31.3678 22.1198 31.4373C21.9807 31.326 21.8417 31.2147 21.7027 31.1034C17.4347 27.5132 16.7952 20.1381 20.4654 13.7788L20.4515 13.7927Z" fill="url(#paint9_linear_89_18088)"/>
<path fill-rule="evenodd" clip-rule="evenodd" d="M31.286 16.7558C37.3056 21.3201 38.4595 31.0051 33.7189 39.2291C28.9783 47.4391 20.0253 51.2798 13.0603 48.3436C11.253 47.5922 9.6265 46.7712 7.70801 45.658L16.9946 29.5579L26.2812 13.4579C28.1997 14.5711 29.7151 15.573 31.2721 16.7558H31.286Z" fill="url(#paint10_linear_89_18088)"/>
<path fill-rule="evenodd" clip-rule="evenodd" d="M26.2897 13.4569C33.5049 17.6315 35.1871 28.2072 30.0572 37.0991C24.9273 45.991 14.9178 49.8177 7.7165 45.657C0.515208 41.4963 -1.18085 30.9067 3.94903 22.0149C9.07891 13.123 19.0884 9.29625 26.2897 13.4569Z" fill="url(#paint11_radial_89_18088)"/>
<path fill-rule="evenodd" clip-rule="evenodd" d="M23.8396 16.7428C29.2336 19.8598 30.3597 28.0142 26.3559 34.958C22.3521 41.9017 14.7337 45.0048 9.33968 41.8878C3.94566 38.7708 2.81959 30.6164 6.8234 23.6726C10.8272 16.7289 18.4456 13.6258 23.8396 16.7428Z" fill="url(#paint12_radial_89_18088)"/>
<g style="mix-blend-mode:multiply" opacity="0.5">
<path fill-rule="evenodd" clip-rule="evenodd" d="M9.7294 26.412C13.5247 19.8439 20.7399 16.9078 25.842 19.8578C26.5788 20.2753 27.2183 20.8041 27.7883 21.4024C26.968 19.4265 25.6334 17.7984 23.8123 16.7408C18.4182 13.6238 10.7999 16.7269 6.79605 23.6706C2.79224 30.6144 3.91832 38.7688 9.31234 41.8858C9.7016 42.1084 10.1048 42.3033 10.5218 42.4702C6.83776 38.9497 6.39289 32.2425 9.7433 26.4259L9.7294 26.412Z" fill="url(#paint13_radial_89_18088)"/>
</g>
<path fill-rule="evenodd" clip-rule="evenodd" d="M8.60287 24.7024C12.273 18.3431 18.9599 15.2121 24.201 17.1185C24.3679 17.1742 24.5347 17.2437 24.7015 17.3133C24.5625 17.202 24.4096 17.1046 24.2706 17.0072C24.1315 16.9098 23.9925 16.8263 23.8396 16.7428C18.4456 13.6258 10.8272 16.7289 6.8234 23.6726C2.81959 30.6164 3.94566 38.7708 9.33968 41.8878C9.4787 41.9713 9.63163 42.0548 9.78455 42.1244C9.93747 42.2078 10.1043 42.2774 10.2711 42.347C10.1321 42.2357 9.99308 42.1244 9.85406 42.013C5.58611 38.4229 4.94661 31.0478 8.61677 24.6884L8.60287 24.7024Z" fill="url(#paint14_linear_89_18088)"/>
<defs>
<linearGradient id="paint0_linear_89_18088" x1="36.3701" y1="50.5005" x2="54.9697" y2="18.3157" gradientUnits="userSpaceOnUse">
<stop stop-color="#D47100"/>
<stop offset="0.69" stop-color="#FFC60D"/>
<stop offset="1" stop-color="#E8810C"/>
</linearGradient>
<radialGradient id="paint1_radial_89_18088" cx="0" cy="0" r="1" gradientUnits="userSpaceOnUse" gradientTransform="translate(30.6358 12.8029) scale(32.4614 32.4923)">
<stop stop-color="#FFEC2B"/>
<stop offset="1" stop-color="#FCB00D"/>
</radialGradient>
<radialGradient id="paint2_radial_89_18088" cx="0" cy="0" r="1" gradientUnits="userSpaceOnUse" gradientTransform="translate(35.3723 11.9838) scale(34.4216 34.4543)">
<stop stop-color="#FFEA00"/>
<stop offset="0.78" stop-color="#F79E0C"/>
<stop offset="0.83" stop-color="#F0940A"/>
<stop offset="0.93" stop-color="#E07A04"/>
<stop offset="1" stop-color="#D16100"/>
</radialGradient>
<radialGradient id="paint3_radial_89_18088" cx="0" cy="0" r="1" gradientUnits="userSpaceOnUse" gradientTransform="translate(43.439 32.3422) scale(22.9107 22.9324)">
<stop offset="0.51" stop-color="white"/>
<stop offset="0.69" stop-color="#FFE6C2"/>
<stop offset="1" stop-color="#FFB74B"/>
</radialGradient>
<linearGradient id="paint4_linear_89_18088" x1="25.182" y1="39.3274" x2="39.4938" y2="14.5699" gradientUnits="userSpaceOnUse">
<stop stop-color="#D95F00"/>
<stop offset="0.31" stop-color="#FFB121"/>
<stop offset="1" stop-color="#CC5810"/>
</linearGradient>
<linearGradient id="paint5_linear_89_18088" x1="27.9257" y1="39.5909" x2="46.5115" y2="7.40608" gradientUnits="userSpaceOnUse">
<stop stop-color="#D47100"/>
<stop offset="0.69" stop-color="#FFC60D"/>
<stop offset="1" stop-color="#E8810C"/>
</linearGradient>
<radialGradient id="paint6_radial_89_18088" cx="0" cy="0" r="1" gradientUnits="userSpaceOnUse" gradientTransform="translate(22.1826 1.8934) scale(32.4615 32.4923)">
<stop stop-color="#FFEC2B"/>
<stop offset="1" stop-color="#FCB00D"/>
</radialGradient>
<radialGradient id="paint7_radial_89_18088" cx="0" cy="0" r="1" gradientUnits="userSpaceOnUse" gradientTransform="translate(26.9299 1.07412) scale(34.4216 34.4543)">
<stop stop-color="#FFEA00"/>
<stop offset="0.78" stop-color="#F79E0C"/>
<stop offset="0.83" stop-color="#F0940A"/>
<stop offset="0.93" stop-color="#E07A04"/>
<stop offset="1" stop-color="#D16100"/>
</radialGradient>
<radialGradient id="paint8_radial_89_18088" cx="0" cy="0" r="1" gradientUnits="userSpaceOnUse" gradientTransform="translate(34.9585 21.4306) scale(22.9107 22.9324)">
<stop offset="0.51" stop-color="white"/>
<stop offset="0.69" stop-color="#FFE6C2"/>
<stop offset="1" stop-color="#FFB74B"/>
</radialGradient>
<linearGradient id="paint9_linear_89_18088" x1="16.7396" y1="28.4177" x2="31.0514" y2="3.67414" gradientUnits="userSpaceOnUse">
<stop stop-color="#D95F00"/>
<stop offset="0.31" stop-color="#FFB121"/>
<stop offset="1" stop-color="#CC5810"/>
</linearGradient>
<linearGradient id="paint10_linear_89_18088" x1="16.0771" y1="50.5005" x2="34.6768" y2="18.3157" gradientUnits="userSpaceOnUse">
<stop stop-color="#D47100"/>
<stop offset="0.69" stop-color="#FFC60D"/>
<stop offset="1" stop-color="#E8810C"/>
</linearGradient>
<radialGradient id="paint11_radial_89_18088" cx="0" cy="0" r="1" gradientUnits="userSpaceOnUse" gradientTransform="translate(10.344 -3.49193) scale(32.4614 32.4923)">
<stop stop-color="#FFEC2B"/>
<stop offset="1" stop-color="#FCB00D"/>
</radialGradient>
<radialGradient id="paint12_radial_89_18088" cx="0" cy="0" r="1" gradientUnits="userSpaceOnUse" gradientTransform="translate(15.0813 -3.49008) scale(34.4216 34.4543)">
<stop stop-color="#FFEA00"/>
<stop offset="0.78" stop-color="#F79E0C"/>
<stop offset="0.83" stop-color="#F0940A"/>
<stop offset="0.93" stop-color="#E07A04"/>
<stop offset="1" stop-color="#D16100"/>
</radialGradient>
<radialGradient id="paint13_radial_89_18088" cx="0" cy="0" r="1" gradientUnits="userSpaceOnUse" gradientTransform="translate(23.1032 -3.49206) scale(22.9107 22.9324)">
<stop offset="0.51" stop-color="white"/>
<stop offset="0.69" stop-color="#FFE6C2"/>
<stop offset="1" stop-color="#FFB74B"/>
</radialGradient>
<linearGradient id="paint14_linear_89_18088" x1="4.891" y1="39.3274" x2="19.1888" y2="14.5698" gradientUnits="userSpaceOnUse">
<stop stop-color="#D95F00"/>
<stop offset="0.31" stop-color="#FFB121"/>
<stop offset="1" stop-color="#CC5810"/>
</linearGradient>
</defs>
</svg>
