<svg width="312" height="182" viewBox="0 0 312 182" fill="none" xmlns="http://www.w3.org/2000/svg">
<g filter="url(#filter0_i_89_17941)">
<mask id="mask0_89_17941" style="mask-type:alpha" maskUnits="userSpaceOnUse" x="0" y="0" width="178" height="182">
<ellipse cx="89.1827" cy="90.9566" rx="88.3331" ry="90.3256" fill="#D9D9D9"/>
</mask>
<g mask="url(#mask0_89_17941)">
<path d="M115.95 183.078C115.95 178.122 115.29 152.347 110.338 137.808L127.835 128.225C131.136 143.756 132.456 178.452 132.786 181.095C133.777 186.382 131.466 226.365 131.466 226.365C134.107 233.305 133.117 244.209 131.136 248.174C129.155 252.14 118.261 255.774 116.28 256.105C114.299 256.435 110.998 257.096 110.008 256.105C109.017 255.114 116.94 247.844 117.601 247.183C118.261 246.522 118.591 239.253 117.271 237.27C115.95 235.287 112.649 244.209 108.357 241.235C104.396 238.261 115.29 227.026 115.95 225.705C116.61 224.052 116.28 193.322 115.95 183.078Z" fill="#FBB77A"/>
<path d="M116.277 100.469C116.277 100.469 128.492 107.077 129.482 114.677C130.143 118.973 132.454 139.46 134.104 154.991C135.425 167.878 136.085 181.095 135.755 193.983L135.095 217.113C135.095 217.113 117.598 220.418 109.675 216.783C101.422 213.148 98.4507 191.339 100.431 188.035C102.742 184.73 107.694 161.269 107.694 161.269L116.277 100.469Z" fill="#465960"/>
<path d="M47.9395 107.738C51.5708 102.451 74.3495 94.8511 74.3495 94.8511L102.08 96.1729C107.032 97.8251 111.984 98.8164 115.945 100.799C119.577 120.956 120.897 162.921 120.897 162.921V208.522C114.295 217.444 103.4 226.365 90.5256 229.339C70.7181 233.965 48.9298 227.026 48.9298 227.026L49.9202 170.521L47.9395 107.738Z" fill="#F4F4F4"/>
<path d="M69.7375 96.1734C62.8049 98.8169 50.2601 103.773 47.6191 107.739L49.93 170.522L48.9396 232.644C48.9396 232.644 64.7856 237.601 81.622 236.279C83.6028 179.444 75.0195 121.617 69.7375 96.1734Z" fill="#687A82"/>
<path d="M38.0422 121.948C41.6736 104.765 53.228 105.426 53.228 105.426C58.1799 106.417 61.151 110.383 62.8016 114.678C64.7824 119.965 64.7824 125.583 63.4619 130.87C60.1606 143.757 53.8882 171.514 53.8882 171.514L51.9075 225.045L29.459 225.375L31.1096 168.209L38.0422 121.948Z" fill="#465960"/>
<path d="M108.689 97.8262C111 121.618 115.952 189.688 113.311 226.036C116.282 223.393 119.253 220.419 121.234 217.445V162.592C121.234 162.592 119.914 120.626 116.282 100.47C113.971 99.4784 111.33 98.8175 108.689 97.8262Z" fill="#687A82"/>
<path d="M75.0137 71.7206V94.5208C75.0137 94.5208 84.9174 116.66 97.1321 114.677C97.1321 114.677 104.065 111.704 103.074 99.8078V86.9207L75.0137 71.7206Z" fill="#F29F5C"/>
<path d="M98.7827 39.3379C85.5777 39.3379 75.0137 49.9119 75.0137 63.1294V71.3903C75.0137 84.9383 85.5777 96.1732 98.7827 96.1732C111.988 96.1732 122.552 84.9383 122.552 71.3903V63.1294C122.552 63.1294 121.561 50.9032 122.552 46.9379C123.212 43.6336 98.7827 39.3379 98.7827 39.3379Z" fill="#FBB77A"/>
<path d="M71.049 27.7722C102.741 9.26772 126.51 29.4244 122.218 53.5464C122.218 53.5464 113.305 50.242 104.392 45.6159C104.392 45.6159 94.818 52.8855 88.2155 55.529C85.9046 56.5203 84.5841 58.8334 84.5841 61.1465V70.7292H80.6226C80.9527 68.0857 80.9527 62.7986 74.3502 62.1378L69.7285 66.103L75.0105 74.364V89.2337C75.0105 89.2337 70.3887 89.5641 67.0875 84.6076C64.1163 79.651 51.9017 39.0071 71.049 27.7722Z" fill="#443F3D"/>
<path d="M68.082 68.4157C68.082 65.1113 70.723 62.1374 74.3544 62.1374C77.6557 62.1374 80.6268 64.7809 80.6268 68.4157C80.6268 71.7201 77.9858 74.694 74.3544 74.694C70.723 74.3636 68.082 71.7201 68.082 68.4157Z" fill="#FBB77A"/>
</g>
</g>
<mask id="mask1_89_17941" style="mask-type:alpha" maskUnits="userSpaceOnUse" x="135" y="0" width="177" height="182">
<ellipse cx="223.339" cy="90.9571" rx="88.3331" ry="90.3256" fill="#D9D9D9"/>
</mask>
<g mask="url(#mask1_89_17941)">
<path d="M219.601 31.0178C217.29 22.7568 221.912 14.1654 230.165 11.8524C238.418 9.5393 247.001 14.1654 249.312 22.4264C251.623 30.6873 247.001 39.2787 238.748 41.5918C230.495 43.9048 221.912 39.2787 219.601 31.0178Z" fill="#221E1F"/>
<path d="M239.748 41.26C241.728 27.0512 228.193 21.1033 221.26 19.1207C219.94 21.4337 219.28 23.4164 219.28 23.4164L225.222 32.3382C229.514 36.3034 234.466 39.2774 239.748 41.26Z" fill="#52C1FF"/>
<path d="M226.214 73.6449L218.621 64.0622L217.63 51.1751C217.63 51.1751 204.425 71.3318 198.153 63.7318C198.153 63.7318 196.172 54.8099 185.938 58.1143C185.938 58.1143 175.374 21.1053 207.066 19.7835C235.127 18.4618 251.633 48.8621 232.816 72.3232L226.214 73.6449Z" fill="#221E1F"/>
<path d="M227.854 96.1128L203.755 98.0954L200.784 98.4258C191.871 99.0867 183.287 104.374 179.656 112.635C175.364 121.887 171.733 138.078 173.054 168.479C173.384 173.766 174.374 213.749 174.374 213.749C171.733 220.688 172.723 231.592 174.704 235.558C176.685 239.523 187.579 243.158 189.56 243.488C191.541 243.818 194.842 244.479 195.832 243.488C196.823 242.497 188.9 235.227 188.239 234.566C187.579 233.905 187.249 226.636 188.569 224.653C189.89 222.67 193.191 231.592 197.483 228.618C201.444 225.644 190.55 214.41 189.89 213.088C189.56 211.766 189.56 181.035 189.89 170.461C189.89 166.496 190.55 149.974 192.861 135.765L206.066 138.739L242.05 139.07L262.848 115.939C257.236 98.0954 227.854 96.1128 227.854 96.1128Z" fill="#FBB77A"/>
<path d="M250.303 184.01C251.954 192.271 262.517 223.332 262.517 223.332C262.517 223.332 216.63 241.506 179.656 210.115C179.656 210.115 192.861 168.81 186.589 160.549C180.316 152.288 170.082 141.384 180.316 128.166C182.297 125.853 183.287 123.21 184.278 120.897C199.464 128.166 227.194 136.427 262.848 122.549C262.848 123.54 263.178 124.201 263.178 125.192C263.178 125.192 250.303 170.132 250.303 182.028C249.973 183.019 249.973 183.68 250.303 184.01Z" fill="#F37DB2"/>
<path d="M245.023 110.653C239.741 113.957 237.43 120.235 239.741 126.183C245.683 142.044 256.247 172.775 255.917 180.375C255.587 190.949 253.936 221.68 253.276 223.001C252.616 224.323 241.061 234.897 245.023 238.202C248.984 241.506 252.946 232.584 253.936 234.567C255.257 236.549 254.266 243.819 253.606 244.48C252.946 245.141 244.363 252.08 245.353 253.071C246.343 254.063 249.645 253.732 251.625 253.402C253.936 253.071 264.5 250.428 267.141 246.463C269.452 242.497 271.103 231.593 268.792 224.654C268.792 224.654 274.734 184.01 274.074 179.053C273.744 175.088 270.773 140.722 263.84 118.253C261.199 109.661 251.955 106.357 245.023 110.653Z" fill="#FBB77A"/>
<path d="M227.854 75.6278V96.1149C227.854 96.1149 218.94 115.941 208.046 114.289C208.046 114.289 201.774 111.646 202.764 101.072V89.5062L227.854 75.6278Z" fill="#F29F5C"/>
<path d="M199.463 40.931C222.241 56.792 226.203 48.531 227.854 68.3573V75.9574C227.854 88.1836 218.28 98.0967 206.395 98.0967C194.511 98.0967 184.937 88.1836 185.267 75.9574V68.3573C185.267 68.3573 184.937 59.4355 185.267 56.1311C185.598 46.5484 199.463 40.931 199.463 40.931Z" fill="#FBB77A"/>
<path d="M233.799 72.6543C233.799 69.6803 231.488 67.0368 228.187 67.0368C225.216 67.0368 222.575 69.3499 222.575 72.6543C222.575 75.6282 224.885 78.2717 228.187 78.2717C231.488 77.9413 233.799 75.6282 233.799 72.6543Z" fill="#FBB77A"/>
<path d="M248.654 101.4C247.664 102.392 247.003 103.383 246.013 104.705C241.721 110.983 237.76 120.235 236.769 133.453L239.41 134.775C242.051 116.931 246.013 109.992 250.965 102.722C250.305 102.392 249.314 101.731 248.654 101.4Z" fill="#F37DB2"/>
<path d="M196.17 99.0888C194.519 99.4193 192.869 100.08 191.548 100.741C187.917 107.019 184.616 115.28 183.625 127.507L186.266 128.828C188.247 112.967 191.878 105.698 196.17 99.0888Z" fill="#F37DB2"/>
</g>
<path d="M171.19 117.524L165.484 130.94L163.892 134.792L163.095 136.784L158.716 146.879L157.787 149.005L156.858 150.997L144.516 179.822L126.999 179.556L125.672 159.897L124.345 139.574L123.682 129.478L136.289 129.213L136.687 142.496L136.82 150.466L137.218 166.671C137.35 166.007 141.066 156.975 144.915 147.278C145.711 145.418 146.507 143.426 147.303 141.566C151.152 132.135 154.602 123.767 154.602 123.767L171.19 117.524Z" fill="url(#paint0_linear_89_17941)"/>
<path d="M128.064 178.361L124.879 130.674L134.965 130.408L136.557 169.726C136.557 169.726 148.102 143.027 155.401 124.829L168.805 119.649L143.59 178.626L128.064 178.361Z" fill="url(#paint1_linear_89_17941)"/>
<g style="mix-blend-mode:screen" opacity="0.48">
<path d="M156.725 150.865L144.383 179.69L126.866 179.424L125.539 159.765C125.937 159.234 126.335 158.835 126.601 158.437C129.122 155.514 132.042 152.991 135.359 151.131C135.757 150.865 136.156 150.733 136.554 150.467L137.217 166.407C137.35 165.743 140.8 156.976 144.781 147.412C145.312 147.279 145.843 147.146 146.374 147.013C148.63 146.615 151.019 146.349 153.407 146.349C154.469 146.349 155.398 146.349 156.327 146.482C156.327 146.748 156.327 147.013 156.327 147.279C156.327 147.81 156.327 148.209 156.46 148.74C156.46 149.537 156.592 150.201 156.725 150.865Z" fill="url(#paint2_linear_89_17941)"/>
</g>
<path opacity="0.23" d="M136.156 129.214L136.554 142.498C136.156 142.498 135.758 142.498 135.36 142.365C131.909 142.099 128.592 141.302 125.54 139.974C125.141 139.841 124.743 139.575 124.345 139.442L123.682 129.347L136.156 129.214Z" fill="#C38BF2"/>
<path opacity="0.23" d="M171.192 117.524L165.485 130.94C164.689 131.869 163.893 132.666 163.097 133.463C159.248 137.05 154.338 139.839 148.897 141.433C148.366 141.566 147.836 141.699 147.305 141.832C151.153 132.401 154.604 124.032 154.604 124.032L171.192 117.524Z" fill="#C38BF2"/>
<path d="M137.352 166.406L136.822 169.328L136.025 153.388L136.822 151.661L137.352 166.406Z" fill="url(#paint3_linear_89_17941)"/>
<g style="mix-blend-mode:screen">
<path d="M168.931 119.649L171.187 117.524L165.348 131.205L162.826 133.729L168.931 119.649Z" fill="url(#paint4_linear_89_17941)"/>
</g>
<g style="mix-blend-mode:screen">
<path d="M154.47 123.9L155.399 124.829L136.953 168.929L137.086 166.804L154.47 123.9Z" fill="url(#paint5_linear_89_17941)"/>
</g>
<g style="mix-blend-mode:screen">
<path d="M136.557 143.823L135.628 145.948L134.965 130.54L136.159 129.212L136.557 143.823Z" fill="url(#paint6_linear_89_17941)"/>
</g>
<g style="mix-blend-mode:screen">
<path d="M128.057 178.36L126.862 179.556L125.668 159.897L126.464 156.842L128.057 178.36Z" fill="url(#paint7_linear_89_17941)"/>
</g>
<path d="M154.209 154.052L155.271 154.185L148.635 169.992L146.777 171.453L154.209 154.052Z" fill="url(#paint8_linear_89_17941)"/>
<path d="M170.264 143.692C169.468 144.356 169.07 145.153 169.07 146.348C169.07 147.411 169.468 148.474 170.132 149.404C170.795 150.333 172.255 151.529 174.246 153.123C175.971 154.318 177.298 155.647 178.492 156.975C179.023 157.639 179.554 158.303 179.952 159.1C181.146 161.226 182.208 163.484 182.208 166.14C182.208 171.055 180.217 174.907 177.032 177.564C173.848 180.221 169.999 181.549 164.293 181.549C161.904 181.549 158.984 181.416 156.861 180.752C153.278 179.822 148.501 178.228 146.908 177.298L151.288 167.07C153.145 168.266 155.269 169.196 157.525 169.993C159.913 170.79 162.037 171.188 163.895 171.188C165.487 171.188 166.681 170.79 167.61 170.125C168.407 169.461 168.805 168.531 168.805 167.203C168.805 166.672 168.672 166.008 168.407 165.609C168.141 165.078 167.743 164.546 167.345 164.015C166.814 163.484 165.62 162.421 163.496 160.694C160.975 158.702 159.117 156.577 157.923 154.451C157.392 153.389 156.861 152.193 156.596 150.998C156.463 150.333 156.33 149.536 156.198 148.739C156.198 148.341 156.065 147.81 156.065 147.278C156.065 147.013 156.065 146.747 156.065 146.481C156.198 143.958 156.861 141.567 158.188 139.574C159.117 138.113 160.179 136.917 161.639 135.855C162.169 135.456 162.833 135.058 163.496 134.659C163.762 134.526 164.027 134.394 164.293 134.261C166.947 133.065 169.866 132.401 173.051 132.401C178.227 132.401 183.004 133.597 187.118 135.855L182.739 145.551C179.023 143.692 175.838 142.629 173.184 142.629C171.99 142.762 170.928 143.028 170.264 143.692Z" fill="url(#paint9_linear_89_17941)"/>
<path d="M167.871 146.347C167.871 147.676 168.269 149.004 169.198 150.067C169.994 151.129 171.454 152.325 173.578 154.052C175.966 155.911 177.824 157.771 179.018 159.63C179.682 160.826 180.478 162.287 180.876 164.147C181.009 164.811 181.009 165.342 181.009 166.006C181.009 169.062 180.213 171.851 178.488 174.109C177.824 175.039 177.161 175.703 176.232 176.5C174.506 177.961 172.516 179.024 170.127 179.555C168.402 179.954 166.544 180.219 164.288 180.219C161.501 180.219 158.847 179.954 157.122 179.555C154.07 178.758 150.354 177.563 148.496 176.633L151.946 168.663C153.539 169.593 155.397 170.39 157.255 170.921C159.776 171.718 162.032 172.117 164.023 172.117C165.881 172.117 167.34 171.718 168.402 170.788C168.667 170.523 168.933 170.257 169.198 169.991C169.729 169.194 170.127 168.132 170.127 167.069C170.127 166.538 169.994 166.139 169.862 165.741C169.729 165.475 169.729 165.209 169.596 164.944C169.331 164.28 168.8 163.748 168.269 163.084C167.738 162.553 166.677 161.623 164.819 160.029C164.686 159.896 164.554 159.763 164.288 159.63C161.899 157.638 160.042 155.646 158.98 153.653C157.918 151.661 157.387 149.535 157.387 147.144C157.387 144.488 158.051 142.097 159.378 140.104C160.705 137.979 162.563 136.385 164.952 135.189C167.34 133.994 170.127 133.463 173.179 133.463C177.824 133.463 181.938 134.392 185.654 136.252L182.203 143.823C178.753 142.23 175.834 141.433 173.312 141.433C171.587 141.433 170.26 141.831 169.331 142.628C168.667 143.292 167.871 144.355 167.871 146.347Z" fill="url(#paint10_linear_89_17941)"/>
<g style="mix-blend-mode:screen" opacity="0.48">
<path d="M182.337 166.139C182.337 169.858 181.275 172.913 179.285 175.437C178.621 176.234 177.958 176.898 177.161 177.562C175.702 178.758 174.109 179.687 172.251 180.352C169.995 181.149 167.474 181.547 164.422 181.547C162.033 181.547 159.113 181.414 156.99 180.75C153.407 179.82 148.63 178.226 147.037 177.296L151.416 167.068C153.274 168.264 155.398 169.194 157.654 169.991C160.042 170.788 162.166 171.186 164.023 171.186C165.616 171.186 166.81 170.788 167.739 170.123C167.872 169.991 168.005 169.858 168.137 169.725C168.668 169.061 168.934 168.264 168.934 167.334C168.934 166.803 168.801 166.139 168.535 165.74C168.535 165.607 168.403 165.474 168.403 165.342C168.137 164.943 167.872 164.545 167.474 164.146C166.943 163.615 165.749 162.552 163.625 160.825C163.36 160.56 163.095 160.427 162.829 160.161C160.706 158.301 159.113 156.442 158.052 154.582C157.521 153.52 156.99 152.324 156.725 151.129C156.592 150.464 156.459 149.667 156.327 148.87C156.327 148.472 156.194 147.941 156.194 147.409C156.194 147.144 156.194 146.878 156.194 146.612C156.459 146.612 156.857 146.612 157.123 146.745C157.255 146.745 157.255 146.745 157.388 146.745C157.786 146.745 158.052 146.878 158.317 146.878C162.033 147.409 165.749 148.605 168.934 150.199C172.384 151.926 175.569 154.317 178.223 156.973C178.754 157.637 179.285 158.301 179.683 159.098C180.214 160.161 180.744 161.091 181.143 162.286C182.072 163.349 182.337 164.677 182.337 166.139Z" fill="url(#paint11_linear_89_17941)"/>
</g>
<g style="mix-blend-mode:screen">
<path d="M170.256 167.203C170.256 168.797 169.726 170.125 168.531 171.055C167.47 171.852 166.01 172.383 164.152 172.383C162.161 172.383 159.773 171.985 157.384 171.188C155.393 170.523 153.668 169.726 152.076 168.929L151.545 167.203C153.403 168.398 155.526 169.328 157.782 170.125C160.171 170.922 162.294 171.32 164.152 171.32C165.744 171.32 166.939 170.922 167.868 170.258C168.664 169.594 169.062 168.664 169.062 167.335C169.062 166.804 168.929 166.14 168.664 165.741C168.664 165.609 168.531 165.476 168.531 165.343C169.062 165.476 169.593 165.741 170.124 166.007C170.124 166.273 170.256 166.671 170.256 167.203Z" fill="url(#paint12_linear_89_17941)"/>
</g>
<g style="mix-blend-mode:screen">
<path d="M182.336 143.957L182.999 145.684L187.379 135.854L185.786 136.386L182.336 143.957Z" fill="url(#paint13_linear_89_17941)"/>
</g>
<path d="M170.258 167.204C170.258 168.399 169.992 169.329 169.329 170.126L168.134 169.595C168.665 168.931 168.931 168.134 168.931 167.204C168.931 166.672 168.798 166.008 168.533 165.61C168.533 165.477 168.4 165.344 168.4 165.211C168.134 164.813 167.869 164.414 167.471 164.016C166.94 163.484 165.746 162.422 163.622 160.695C163.357 160.429 163.092 160.296 162.826 160.031L164.949 160.164C166.807 161.758 167.869 162.687 168.4 163.219C168.931 163.75 169.329 164.414 169.727 165.078C169.86 165.344 169.992 165.61 169.992 165.875C170.125 166.274 170.258 166.672 170.258 167.204Z" fill="url(#paint14_linear_89_17941)"/>
<g style="mix-blend-mode:screen">
<path d="M151.947 168.796L148.497 176.766L147.037 177.297L151.416 166.936L151.947 168.796Z" fill="url(#paint15_linear_89_17941)"/>
</g>
<defs>
<filter id="filter0_i_89_17941" x="29.459" y="20.5552" width="111.584" height="165.577" filterUnits="userSpaceOnUse" color-interpolation-filters="sRGB">
<feFlood flood-opacity="0" result="BackgroundImageFix"/>
<feBlend mode="normal" in="SourceGraphic" in2="BackgroundImageFix" result="shape"/>
<feColorMatrix in="SourceAlpha" type="matrix" values="0 0 0 0 0 0 0 0 0 0 0 0 0 0 0 0 0 0 127 0" result="hardAlpha"/>
<feOffset dy="4.85032"/>
<feGaussianBlur stdDeviation="2.42516"/>
<feComposite in2="hardAlpha" operator="arithmetic" k2="-1" k3="1"/>
<feColorMatrix type="matrix" values="0 0 0 0 1 0 0 0 0 1 0 0 0 0 1 0 0 0 0.14 0"/>
<feBlend mode="normal" in2="shape" result="effect1_innerShadow_89_17941"/>
</filter>
<linearGradient id="paint0_linear_89_17941" x1="145.46" y1="130.538" x2="149.89" y2="152.873" gradientUnits="userSpaceOnUse">
<stop stop-color="white"/>
<stop offset="0.3005" stop-color="#C38BF2"/>
<stop offset="0.513" stop-color="#5563D8"/>
<stop offset="0.9922" stop-color="#3F6FAD"/>
</linearGradient>
<linearGradient id="paint1_linear_89_17941" x1="170.561" y1="180.586" x2="116.504" y2="103.435" gradientUnits="userSpaceOnUse">
<stop stop-color="white"/>
<stop offset="0.3005" stop-color="#C38BF2"/>
<stop offset="0.513" stop-color="#5563D8"/>
<stop offset="0.9922" stop-color="#3F6FAD"/>
</linearGradient>
<linearGradient id="paint2_linear_89_17941" x1="129.544" y1="151.181" x2="143.028" y2="164.343" gradientUnits="userSpaceOnUse">
<stop stop-color="white"/>
<stop offset="1"/>
</linearGradient>
<linearGradient id="paint3_linear_89_17941" x1="136.068" y1="160.507" x2="137.302" y2="160.507" gradientUnits="userSpaceOnUse">
<stop stop-color="white"/>
<stop offset="1"/>
</linearGradient>
<linearGradient id="paint4_linear_89_17941" x1="169.192" y1="130.235" x2="166.514" y2="124.679" gradientUnits="userSpaceOnUse">
<stop stop-color="white"/>
<stop offset="1"/>
</linearGradient>
<linearGradient id="paint5_linear_89_17941" x1="148.471" y1="123.674" x2="147.029" y2="138.084" gradientUnits="userSpaceOnUse">
<stop stop-color="#C38BF2"/>
<stop offset="1"/>
</linearGradient>
<linearGradient id="paint6_linear_89_17941" x1="139.758" y1="143.069" x2="132.057" y2="132.078" gradientUnits="userSpaceOnUse">
<stop stop-color="white"/>
<stop offset="1"/>
</linearGradient>
<linearGradient id="paint7_linear_89_17941" x1="126.355" y1="159.042" x2="127.179" y2="176.644" gradientUnits="userSpaceOnUse">
<stop stop-color="white"/>
<stop offset="1"/>
</linearGradient>
<linearGradient id="paint8_linear_89_17941" x1="149.147" y1="159.643" x2="151.896" y2="164.282" gradientUnits="userSpaceOnUse">
<stop stop-color="white"/>
<stop offset="0.7297" stop-color="#4373B0"/>
<stop offset="1" stop-color="white"/>
</linearGradient>
<linearGradient id="paint9_linear_89_17941" x1="153.867" y1="141.383" x2="181.352" y2="172.699" gradientUnits="userSpaceOnUse">
<stop stop-color="white"/>
<stop offset="0.3005" stop-color="#C38BF2"/>
<stop offset="0.513" stop-color="#5563D8"/>
<stop offset="0.9922" stop-color="#3F6FAD"/>
</linearGradient>
<linearGradient id="paint10_linear_89_17941" x1="184.704" y1="159.81" x2="138.11" y2="151.641" gradientUnits="userSpaceOnUse">
<stop stop-color="white"/>
<stop offset="0.3005" stop-color="#C38BF2"/>
<stop offset="0.513" stop-color="#5563D8"/>
<stop offset="0.9922" stop-color="#3F6FAD"/>
</linearGradient>
<linearGradient id="paint11_linear_89_17941" x1="178.924" y1="149.073" x2="163.895" y2="165.116" gradientUnits="userSpaceOnUse">
<stop stop-color="white"/>
<stop offset="1"/>
</linearGradient>
<linearGradient id="paint12_linear_89_17941" x1="169.903" y1="169.51" x2="151.501" y2="166.283" gradientUnits="userSpaceOnUse">
<stop stop-color="white"/>
<stop offset="1"/>
</linearGradient>
<linearGradient id="paint13_linear_89_17941" x1="186.458" y1="140.989" x2="182.991" y2="140.381" gradientUnits="userSpaceOnUse">
<stop stop-color="white"/>
<stop offset="1"/>
</linearGradient>
<linearGradient id="paint14_linear_89_17941" x1="165.364" y1="161.261" x2="168.35" y2="166.302" gradientUnits="userSpaceOnUse">
<stop stop-color="white"/>
<stop offset="0.7297" stop-color="#4373B0"/>
<stop offset="1" stop-color="white"/>
</linearGradient>
<linearGradient id="paint15_linear_89_17941" x1="150.63" y1="172.61" x2="149.088" y2="172.097" gradientUnits="userSpaceOnUse">
<stop stop-color="#C38BF2"/>
<stop offset="1"/>
</linearGradient>
</defs>
</svg>
