<svg width="36" height="36" viewBox="0 0 36 36" fill="none" xmlns="http://www.w3.org/2000/svg">
<path fill-rule="evenodd" clip-rule="evenodd" d="M26.413 1.87986C27.461 0.832048 28.8823 0.243408 30.3642 0.243408C31.8465 0.243408 33.268 0.832317 34.3161 1.88058C35.3642 2.92885 35.9531 4.3506 35.9531 5.83308C35.9531 7.31529 35.3644 8.73681 34.3167 9.78503C34.3165 9.78521 34.3168 9.78485 34.3167 9.78503L31.8803 12.2305C31.8212 12.3213 31.7518 12.4073 31.6722 12.4869C31.594 12.5652 31.5096 12.6335 31.4205 12.6919L18.3115 25.8498C18.015 26.1474 17.6123 26.3146 17.1924 26.3146H11.4655C10.5929 26.3146 9.88563 25.6072 9.88563 24.7345V19.0068C9.88563 18.5868 10.0529 18.184 10.3504 17.8876L23.5054 4.77756C23.5639 4.6881 23.6325 4.60328 23.7111 4.52468C23.7911 4.44468 23.8775 4.37506 23.9687 4.31581L26.4123 1.88058C26.4125 1.88034 26.4128 1.8801 26.413 1.87986ZM24.8502 7.89846L13.0453 19.663V23.1545H16.5363L28.2991 11.3479L24.8502 7.89846ZM30.5293 9.10936L27.0884 5.66791L28.6465 4.11513C29.1021 3.6595 29.7199 3.40353 30.3642 3.40353C31.0085 3.40353 31.6263 3.6595 32.0819 4.11513C32.5375 4.57075 32.7934 5.18872 32.7934 5.83308C32.7934 6.47743 32.5375 7.0954 32.0819 7.55102L32.0799 7.55302L30.5293 9.10936ZM1.92179 9.46156C2.93406 8.44914 4.307 7.88037 5.73858 7.88037H7.64754C8.52006 7.88037 9.22737 8.58778 9.22737 9.46043C9.22737 10.3331 8.52006 11.0405 7.64754 11.0405H5.73858C5.145 11.0405 4.57573 11.2763 4.15601 11.6961C3.73628 12.1159 3.50048 12.6852 3.50048 13.2789V30.4621C3.50048 31.0557 3.73628 31.6251 4.15601 32.0449C4.57573 32.4646 5.145 32.7005 5.73858 32.7005H22.9192C23.5128 32.7005 24.0821 32.4646 24.5018 32.0449C24.9215 31.6251 25.1573 31.0557 25.1573 30.4621V28.5528C25.1573 27.6802 25.8647 26.9728 26.7372 26.9728C27.6097 26.9728 28.317 27.6802 28.317 28.5528V30.4621C28.317 31.8938 27.7483 33.267 26.736 34.2794C25.7238 35.2918 24.3508 35.8606 22.9192 35.8606H5.73858C4.307 35.8606 2.93406 35.2918 1.92179 34.2794C0.909511 33.267 0.34082 31.8938 0.34082 30.4621V13.2789C0.34082 11.8471 0.90951 10.474 1.92179 9.46156Z" fill="white"/>
</svg>
