<svg width="304" height="179" viewBox="0 0 304 179" fill="none" xmlns="http://www.w3.org/2000/svg">
<mask id="mask0_89_18004" style="mask-type:alpha" maskUnits="userSpaceOnUse" x="129" y="0" width="175" height="179">
<ellipse cx="216.107" cy="89.8948" rx="87.0363" ry="88.9995" fill="#D9D9D9"/>
</mask>
<g mask="url(#mask0_89_18004)">
<path d="M184.103 190.58C184.103 185.696 184.754 160.3 189.633 145.974L172.393 136.532C169.141 151.835 167.84 186.021 167.514 188.626C166.538 193.835 168.815 233.231 168.815 233.231C166.213 240.069 167.189 250.813 169.141 254.72C171.092 258.627 181.826 262.209 183.778 262.534C185.73 262.86 188.983 263.511 189.958 262.534C190.934 261.557 183.128 254.395 182.477 253.743C181.826 253.092 181.501 245.929 182.802 243.976C184.103 242.022 187.356 250.813 191.585 247.883C195.488 244.953 184.754 233.883 184.103 232.58C183.453 231.278 183.778 200.998 184.103 190.58Z" fill="#FBB77A"/>
<path d="M184.101 109.51C184.101 109.51 172.065 116.021 171.089 123.51C170.439 127.742 168.162 147.929 166.535 163.231C165.234 175.929 164.584 188.953 164.909 201.651L165.56 224.442C165.56 224.442 182.799 227.697 190.606 224.116C198.738 220.535 201.666 199.046 199.714 195.79C197.437 192.534 192.558 169.417 192.558 169.417L184.101 109.51Z" fill="#32303B"/>
<path d="M251.107 116.671C247.529 111.462 225.085 103.974 225.085 103.974L197.762 105.276C192.882 106.904 188.003 107.881 184.1 109.834C180.522 129.695 179.221 171.044 179.221 171.044V215.975C185.726 224.766 196.46 233.557 209.146 236.487C228.663 241.046 250.131 234.208 250.131 234.208L249.156 178.533L251.107 116.671Z" fill="#32303B"/>
<path d="M225.086 81.184V103.649C225.086 103.649 216.954 136.208 204.919 134.255C204.919 134.255 195.486 131.976 197.438 109.184V96.4866L225.086 81.184Z" fill="#F29F5C"/>
<path d="M201.665 49.2762C214.677 49.2762 225.085 59.695 225.085 72.7184V80.8581C225.085 94.2071 214.677 105.277 201.665 105.277C188.654 105.277 178.245 94.2071 178.245 80.8581V72.7184C178.245 72.7184 179.221 60.6717 178.245 56.7647C177.595 53.1832 201.665 49.2762 201.665 49.2762Z" fill="#FBB77A"/>
<path d="M225.739 71.7421C225.739 71.7421 221.51 81.1841 218.582 80.2074C216.631 79.5562 216.956 69.463 214.354 65.8815C209.149 58.7186 193.536 69.463 178.899 60.021C159.707 47.3231 200.367 6.62479 228.016 38.2067C237.449 48.951 235.497 70.1142 230.293 76.9515L225.739 71.7421Z" fill="#443F3D"/>
<path d="M231.919 77.6008C231.919 74.345 229.317 71.4147 225.739 71.4147C222.486 71.4147 219.559 74.0194 219.559 77.6008C219.559 80.8567 222.161 83.787 225.739 83.787C229.317 83.787 231.919 81.1823 231.919 77.6008Z" fill="#FBB77A"/>
<path d="M177.594 35.9275C164.257 45.3695 165.558 58.393 180.196 65.2303C194.833 72.0676 217.603 69.7885 230.939 60.3465C244.276 50.9045 242.975 37.881 228.337 31.0437C213.374 24.532 190.605 26.4855 177.594 35.9275Z" fill="#32303B"/>
<path d="M180.518 68.4876C195.155 75.325 217.925 73.0459 231.261 63.6038C238.417 58.3945 241.345 52.2083 240.044 46.3477C240.044 51.2315 236.791 56.1154 230.936 60.6736C217.6 70.1156 195.155 72.3947 180.193 65.5574C173.687 62.6271 169.784 58.0689 168.808 53.5107C168.483 59.3712 172.386 64.9062 180.518 68.4876Z" fill="#221E1F"/>
<path d="M176.941 29.0878V29.4134V29.739V30.0646V30.3902V30.7158V31.0414V31.3669V31.6925C176.941 31.6925 176.941 32.0181 177.267 32.0181C177.267 32.0181 177.267 32.3437 177.592 32.3437C177.592 32.3437 177.592 32.6693 177.917 32.6693C177.917 32.6693 177.917 32.9949 178.242 32.9949L178.568 33.3205C178.568 33.3205 178.568 33.6461 178.893 33.6461L179.218 33.9716C179.218 33.9716 179.218 33.9716 179.543 34.2972C179.869 34.6228 179.869 34.6228 180.194 34.9484C180.194 34.9484 180.194 34.9484 180.519 35.274C180.845 35.5996 180.845 35.5996 181.17 35.9252C181.17 35.9252 181.495 35.9252 181.495 36.2507L181.82 36.5763L182.146 36.9019L182.471 37.2275L182.796 37.5531L183.122 37.8787C183.122 37.8787 183.447 37.8787 183.447 38.2043L183.772 38.5299C184.097 38.5299 184.097 38.8554 184.423 38.8554C185.073 39.181 185.724 39.5066 186.374 39.5066C186.374 39.5066 186.7 39.5066 186.7 39.8322C187.35 40.1578 187.675 40.1578 188.326 40.4834C188.326 40.4834 188.326 40.4834 188.651 40.4834C189.302 40.809 189.952 40.809 190.603 40.809C190.928 40.809 191.579 41.1345 191.904 41.1345C192.229 41.1345 192.555 41.1345 192.88 41.4601C193.205 41.4601 193.856 41.4601 194.181 41.7857C194.506 41.7857 194.832 41.7857 195.157 41.7857H195.482C196.133 41.7857 196.783 41.7857 197.108 41.7857C197.434 41.7857 197.434 41.7857 197.759 41.7857C198.084 41.7857 198.41 41.7857 198.735 41.7857C199.385 41.7857 200.036 41.7857 200.361 41.7857C200.687 41.7857 201.012 41.7857 201.337 41.7857C201.662 41.7857 202.313 41.7857 202.638 41.7857C202.964 41.7857 203.289 41.7857 203.939 41.7857C204.265 41.7857 204.915 41.7857 205.24 41.4601C205.566 41.4601 205.891 41.4601 206.542 41.1345C206.867 41.1345 207.517 40.809 207.843 40.809C208.168 40.809 208.493 40.4834 208.819 40.4834C209.144 40.4834 209.794 40.1578 210.12 40.1578C210.445 40.1578 210.77 39.8322 211.095 39.8322C211.746 39.5066 212.071 39.5066 212.722 39.181C213.047 39.181 213.372 38.8554 213.698 38.8554C214.023 38.8554 214.023 38.8554 214.348 38.5299C214.999 38.2043 215.324 38.2043 215.975 37.8787C215.975 37.8787 216.3 37.8787 216.3 37.5531C216.625 37.2275 217.276 37.2275 217.601 36.9019C217.926 36.9019 217.926 36.5763 218.252 36.5763C218.902 36.2507 219.553 35.9252 219.878 35.274C223.456 32.6693 225.408 29.739 226.058 26.8087C226.058 26.4831 226.384 25.832 226.384 25.5064C226.384 25.1808 226.384 25.1808 226.384 24.8552C226.384 24.5296 226.384 24.5296 226.384 24.204L228.01 39.8322C228.335 43.7392 226.384 47.6463 221.504 50.9021C220.854 51.2277 220.203 51.5533 219.878 52.2045C219.553 52.2045 219.553 52.5301 219.227 52.5301C218.902 52.8557 218.577 52.8557 218.252 53.1813C218.252 53.1813 218.252 53.1813 217.926 53.1813C217.926 53.1813 217.601 53.1812 217.601 53.5068C217.276 53.8324 216.625 53.8324 215.975 54.158C215.649 54.158 215.649 54.158 215.324 54.4836H214.999C214.674 54.4836 214.674 54.4836 214.348 54.8092C213.698 55.1348 213.372 55.1348 212.722 55.4604H212.397C212.071 55.4604 212.071 55.4604 211.746 55.7859C211.421 55.7859 210.77 56.1115 210.445 56.1115C210.12 56.1115 210.12 56.1115 209.794 56.1115C209.469 56.1115 209.469 56.1115 209.144 56.1115C208.819 56.1115 208.168 56.4371 207.843 56.4371C207.517 56.4371 207.517 56.4371 207.192 56.4371C206.867 56.4371 206.867 56.4371 206.542 56.4371C206.216 56.4371 205.566 56.4371 205.24 56.7627C204.915 56.7627 204.915 56.7627 204.59 56.7627C204.265 56.7627 204.265 56.7627 203.939 56.7627C203.614 56.7627 202.964 56.7627 202.638 56.7627C202.313 56.7627 202.313 56.7627 201.988 56.7627H201.662C201.012 56.7627 200.361 56.7627 200.036 56.7627C199.711 56.7627 199.711 56.7627 199.385 56.7627H199.06C198.735 56.7627 198.735 56.7627 198.41 56.7627C197.759 56.7627 197.108 56.7627 196.783 56.7627H196.458C196.458 56.7627 196.458 56.7627 196.133 56.7627C195.807 56.7627 195.482 56.7627 195.157 56.7627C194.832 56.7627 194.181 56.7627 193.856 56.4371C193.53 56.4371 193.205 56.4371 192.88 56.1115C192.555 56.1115 191.904 56.1115 191.579 55.7859H191.253C190.603 55.7859 190.278 55.4604 189.627 55.4604C189.627 55.4604 189.627 55.4604 189.302 55.4604C188.651 55.1348 188.326 55.1348 187.675 54.8092C187.35 54.8092 187.35 54.8092 187.35 54.4836C186.7 54.158 186.049 54.158 185.398 53.8324H185.073H184.748C184.423 53.8324 184.423 53.5068 184.423 53.5068C184.423 53.5068 184.097 53.5068 184.097 53.1813L183.772 52.8557L183.447 52.5301L183.122 52.2045L182.796 51.8789L182.471 51.5533C182.471 51.5533 182.471 51.5533 182.146 51.5533C181.82 51.2277 181.82 51.2277 181.495 50.9021C181.495 50.9021 181.495 50.9021 181.17 50.5766C180.845 50.251 180.519 50.251 180.519 49.9254C180.519 49.9254 180.519 49.9254 180.519 49.5998L180.194 49.2742C180.194 49.2742 180.194 48.9486 179.869 48.9486L179.543 48.623C179.543 48.623 179.543 48.623 179.543 48.2975C179.543 48.2975 179.543 47.9719 179.218 47.9719C179.218 47.9719 179.218 47.6463 178.893 47.6463C178.893 47.6463 178.893 47.3207 178.568 47.3207C178.568 47.3207 178.568 47.3207 178.568 46.9951V46.6695V46.3439V46.0183C178.568 46.0183 178.568 46.0183 178.568 45.6928V45.3672V45.0416V44.716C178.568 44.716 178.568 44.716 178.568 44.3904C178.568 44.3904 178.568 44.3904 178.568 44.0648L176.941 28.4367C176.616 28.7623 176.616 29.0878 176.941 29.0878Z" fill="#221E1F"/>
<path d="M177.918 41.1379C177.918 41.4635 177.918 41.4635 177.918 41.4635V41.7891V42.1147V42.4403C177.918 42.4403 177.918 42.4403 177.918 42.7658V43.0914V43.417V43.7426C177.918 43.7426 177.918 43.7426 177.918 44.0682C177.918 44.0682 177.918 44.3938 178.244 44.3938C178.244 44.3938 178.244 44.7194 178.569 44.7194C178.569 44.7194 178.569 45.045 178.894 45.045C178.894 45.045 178.894 45.045 178.894 45.3705L179.219 45.6961C179.219 45.6961 179.219 46.0217 179.545 46.0217L179.87 46.3473C179.87 46.3473 179.87 46.3473 179.87 46.6729C180.195 46.9985 180.195 46.9985 180.521 47.3241C180.521 47.3241 180.521 47.3241 180.846 47.6496C181.171 47.9752 181.171 47.9752 181.496 48.3008C181.496 48.3008 181.496 48.3008 181.822 48.3008L182.147 48.6264L182.472 48.952L182.797 49.2776L183.123 49.6032L183.448 49.9288C183.448 49.9288 183.773 49.9287 183.773 50.2543L184.099 50.5799H184.424H184.749C185.4 50.9055 186.05 51.2311 186.701 51.2311C186.701 51.2311 187.026 51.2311 187.026 51.5567C187.677 51.8823 188.002 51.8823 188.652 52.2079C188.652 52.2079 188.652 52.2079 188.978 52.2079C189.628 52.2079 189.954 52.5334 190.604 52.5334H190.929C191.255 52.5334 191.905 52.859 192.231 52.859C192.556 52.859 192.881 52.859 193.206 53.1846C193.532 53.1846 194.182 53.1846 194.508 53.5102C194.833 53.5102 195.158 53.5102 195.483 53.5102C195.483 53.5102 195.483 53.5102 195.809 53.5102H196.134C196.784 53.5102 197.435 53.5102 197.76 53.5102C198.086 53.5102 198.086 53.5102 198.411 53.5102H198.736C199.061 53.5102 199.061 53.5102 199.387 53.5102C200.037 53.5102 200.688 53.5102 201.013 53.5102H201.338C201.664 53.5102 201.664 53.5102 201.989 53.5102C202.314 53.5102 202.965 53.5102 203.29 53.5102C203.615 53.5102 203.615 53.5102 203.941 53.5102C204.266 53.5102 204.266 53.5102 204.591 53.5102C204.916 53.5102 205.567 53.5102 205.892 53.1846C206.218 53.1846 206.218 53.1846 206.543 53.1846C206.868 53.1846 206.868 53.1846 207.193 53.1846C207.519 53.1846 208.169 52.859 208.494 52.859C208.82 52.859 208.82 52.859 209.145 52.859C209.47 52.859 209.47 52.859 209.796 52.859C210.121 52.859 210.771 52.5334 211.097 52.5334C211.422 52.5334 211.422 52.5334 211.747 52.2079H212.073C212.723 51.8823 213.048 51.8823 213.699 51.5567C214.024 51.5567 214.024 51.5567 214.349 51.2311H214.675C215 51.2311 215 51.2311 215.325 50.9055C215.976 50.5799 216.301 50.5799 216.952 50.2543C216.952 50.2543 217.277 50.2543 217.277 49.9288C217.277 49.9288 217.277 49.9288 217.602 49.9288C217.928 49.6032 218.253 49.6032 218.578 49.2776C218.903 49.2776 218.903 48.952 219.229 48.952C219.879 48.6264 220.53 48.3008 220.855 47.6496C225.409 44.3938 227.686 40.4867 227.361 36.5797L227.686 39.8356C228.011 43.7426 226.06 47.6496 221.18 50.9055C220.53 51.2311 219.879 51.5567 219.554 52.2079C219.229 52.2079 219.229 52.5334 218.903 52.5334C218.578 52.859 218.253 52.859 217.928 53.1846C217.928 53.1846 217.928 53.1846 217.602 53.1846C217.602 53.1846 217.277 53.1846 217.277 53.5102C216.952 53.8358 216.301 53.8358 215.651 54.1614C215.325 54.1614 215.325 54.1614 215 54.487H214.675C214.349 54.487 214.349 54.487 214.024 54.8126C213.374 55.1381 213.048 55.1381 212.398 55.4637H212.073C211.747 55.4637 211.747 55.4637 211.422 55.7893C211.097 55.7893 210.446 56.1149 210.121 56.1149C209.796 56.1149 209.796 56.1149 209.47 56.1149C209.145 56.1149 209.145 56.1149 208.82 56.1149C208.494 56.1149 207.844 56.4405 207.519 56.4405C207.193 56.4405 207.193 56.4405 206.868 56.4405C206.543 56.4405 206.543 56.4405 206.218 56.4405C205.892 56.4405 205.242 56.4405 204.916 56.7661C204.591 56.7661 204.591 56.7661 204.266 56.7661C203.941 56.7661 203.941 56.7661 203.615 56.7661C203.29 56.7661 202.639 56.7661 202.314 56.7661C201.989 56.7661 201.989 56.7661 201.664 56.7661H201.338C200.688 56.7661 200.037 56.7661 199.712 56.7661C199.387 56.7661 199.387 56.7661 199.061 56.7661H198.736C198.411 56.7661 198.411 56.7661 198.086 56.7661C197.435 56.7661 196.784 56.7661 196.459 56.7661H196.134C196.134 56.7661 196.134 56.7661 195.809 56.7661C195.483 56.7661 195.158 56.7661 194.833 56.7661C194.508 56.7661 193.857 56.7661 193.532 56.4405C193.206 56.4405 192.881 56.4405 192.556 56.1149C192.231 56.1149 191.58 56.1149 191.255 55.7893H190.929C190.279 55.7893 189.954 55.4637 189.303 55.4637C189.303 55.4637 189.303 55.4637 188.978 55.4637C188.327 55.1381 188.002 55.1381 187.351 54.8126C187.026 54.8126 187.026 54.8125 187.026 54.487C186.376 54.1614 185.725 54.1614 185.074 53.8358H184.749H184.424C184.099 53.8358 184.099 53.5102 184.099 53.5102C184.099 53.5102 183.773 53.5102 183.773 53.1846L183.448 52.859L183.123 52.5334L182.797 52.2079L182.472 51.8823L182.147 51.5567C182.147 51.5567 182.147 51.5567 181.822 51.5567C181.496 51.2311 181.496 51.2311 181.171 50.9055C181.171 50.9055 181.171 50.9055 180.846 50.5799C180.521 50.2543 180.195 50.2543 180.195 49.9288C180.195 49.9288 180.195 49.9287 180.195 49.6032L179.87 49.2776C179.87 49.2776 179.87 48.952 179.545 48.952L179.219 48.6264C179.219 48.6264 179.219 48.6264 179.219 48.3008C179.219 48.3008 179.219 47.9752 178.894 47.9752C178.894 47.9752 178.894 47.6496 178.569 47.6496C178.569 47.6496 178.569 47.3241 178.244 47.3241C178.244 47.3241 178.244 47.3241 178.244 46.9985V46.6729V46.3473V46.0217C178.244 46.0217 178.244 46.0217 178.244 45.6961V45.3705V45.045V44.7194C178.244 44.7194 178.244 44.7194 178.244 44.3938C178.244 44.3938 178.244 44.3938 178.244 44.0682L176.617 28.44C176.617 28.44 176.617 28.44 176.617 28.7656L177.918 41.1379Z" fill="white"/>
<path d="M183.123 17.6939C173.689 24.5313 174.665 33.6477 185.074 38.5315C195.483 43.4153 211.422 41.7873 220.855 35.2756C230.288 28.4383 229.312 19.3219 218.903 14.4381C208.82 9.22868 192.556 10.8566 183.123 17.6939Z" fill="#32303B"/>
<path d="M260.867 130.349C257.289 113.418 245.904 114.069 245.904 114.069C241.025 115.046 238.098 118.953 236.471 123.186C234.52 128.395 234.52 133.93 235.821 139.14C239.074 151.837 245.254 179.187 245.254 179.187L247.206 231.932L269.325 232.257L268.023 175.931L260.867 130.349Z" fill="#32303B"/>
</g>
<mask id="mask1_89_18004" style="mask-type:alpha" maskUnits="userSpaceOnUse" x="0" y="0" width="175" height="179">
<ellipse cx="87.7199" cy="89.8947" rx="87.0363" ry="88.9995" fill="#D9D9D9"/>
</mask>
<g mask="url(#mask1_89_18004)">
<path d="M115.029 183.961C115.029 179.077 114.378 153.681 109.499 139.355L126.739 129.913C129.992 145.216 131.293 179.403 131.618 182.007C132.594 187.217 130.317 226.613 130.317 226.613C132.919 233.45 131.943 244.194 129.992 248.101C128.04 252.008 117.306 255.59 115.354 255.915C113.403 256.241 110.15 256.892 109.174 255.915C108.198 254.939 116.005 247.776 116.655 247.125C117.306 246.473 117.631 239.31 116.33 237.357C115.029 235.403 111.776 244.194 107.548 241.264C103.644 238.334 114.378 227.264 115.029 225.961C115.68 224.659 115.354 194.38 115.029 183.961Z" fill="#FBB77A"/>
<path d="M115.351 102.89C115.351 102.89 127.386 109.402 128.362 116.89C129.012 121.123 131.289 141.309 132.916 156.612C134.217 169.31 134.867 182.333 134.542 195.031L133.891 217.822C133.891 217.822 116.652 221.078 108.845 217.497C100.713 213.915 97.7856 192.426 99.7372 189.171C102.014 185.915 106.893 162.798 106.893 162.798L115.351 102.89Z" fill="#3947C6"/>
<path d="M48.0156 109.727C51.5937 104.517 74.0379 97.0287 74.0379 97.0287L101.361 98.331C106.24 99.9589 111.12 100.936 115.023 102.889C118.601 122.75 119.902 164.099 119.902 164.099V209.03C113.397 217.821 102.662 226.612 89.9766 229.542C70.4598 234.101 48.9914 227.263 48.9914 227.263L49.9673 171.588L48.0156 109.727Z" fill="#7597F0"/>
<path d="M38.26 123.727C41.838 106.796 53.2228 107.447 53.2228 107.447C58.102 108.424 61.0295 112.331 62.6559 116.564C64.6075 121.773 64.6075 127.308 63.3064 132.518C60.0536 145.216 53.8733 172.565 53.8733 172.565L51.9217 225.31L29.8027 225.635L31.4291 169.309L38.26 123.727Z" fill="#3947C6"/>
<path d="M74.3594 74.5623V97.0278C74.3594 97.0278 84.1177 118.842 96.153 116.889C96.153 116.889 102.984 113.958 102.008 102.237V89.5393L74.3594 74.5623Z" fill="#F29F5C"/>
<path d="M97.7794 42.657C84.7683 42.657 74.3594 53.0758 74.3594 66.0993V74.2389C74.3594 87.588 84.7683 98.6579 97.7794 98.6579C110.791 98.6579 121.199 87.588 121.199 74.2389V66.0993C121.199 66.0993 120.224 54.0525 121.199 50.1455C122.175 46.564 97.7794 42.657 97.7794 42.657Z" fill="#FBB77A"/>
<path d="M67.5293 70.9819C67.5293 67.7261 70.1315 64.7957 73.7096 64.7957C76.9624 64.7957 79.8899 67.4005 79.8899 70.9819C79.8899 74.2378 77.2877 77.168 73.7096 77.168C70.4568 77.168 67.5293 74.5634 67.5293 70.9819Z" fill="#F6DCBC"/>
<path d="M74.3602 22.1434L76.3119 30.9342L82.8175 20.841C85.745 23.1201 88.6725 28.6551 88.6725 28.6551L94.5275 17.9108C99.4067 18.8875 105.912 28.6551 105.912 28.6551L106.888 19.5387C112.418 25.0737 118.273 31.5854 118.273 31.5854L120.224 25.3993C123.477 27.6784 126.73 48.5159 121.526 53.0741C119.574 54.7021 115.345 58.2835 106.888 58.2835C94.8528 58.6091 88.9978 54.0509 87.3714 54.7021C81.8416 56.0044 80.5405 63.1673 80.5405 68.0511C80.5405 69.679 79.2394 70.9814 77.9383 70.9814H75.9866C75.3361 67.3999 75.0108 64.7952 75.0108 64.7952L69.1558 67.0744C69.1558 67.0744 67.2041 70.3302 65.2524 52.423C63.3008 34.8413 74.3602 22.1434 74.3602 22.1434Z" fill="#443F3D"/>
<path d="M67.5293 70.9818C67.5293 74.2377 70.1315 77.168 73.7096 77.168C76.9624 77.168 79.8899 74.5633 79.8899 70.9818C79.8899 70.6563 79.8899 70.3307 79.8899 70.0051C79.2393 70.6562 78.5888 70.9818 77.9382 70.9818H75.9865C75.6613 68.0516 75.336 65.7724 75.0107 65.1213H74.6854C74.3601 65.1213 74.0349 65.1213 73.7096 65.1213C71.7579 65.1213 69.8063 66.098 68.8304 67.726C68.1799 68.7027 67.5293 69.6795 67.5293 70.9818Z" fill="#FBB77A"/>
</g>
<g opacity="0.1">
<path d="M173.756 109.171C173.756 108.107 173.884 107.127 174.139 106.147C166.905 104.87 157.246 103.805 151.885 103.805C146.736 103.805 137.459 104.827 130.311 106.02C130.566 106.999 130.736 108.064 130.736 109.171C130.736 115.475 125.758 120.629 119.545 120.927C120.311 131.319 122.992 145.503 126.141 153.127C131.374 165.777 149.459 176.936 151.885 178.895C154.267 176.936 172.395 165.777 177.629 153.127C180.777 145.46 183.501 131.277 184.224 120.842C178.352 120.203 173.756 115.219 173.756 109.171Z" fill="black"/>
<path d="M175.502 139.495C176.523 134.938 177.374 129.912 177.927 125.099C172.523 122.501 168.693 117.262 168.012 111.129C161.885 110.277 155.545 109.681 151.928 109.681V139.495H175.502Z" fill="black"/>
<path d="M151.925 109.681C151.882 109.681 151.882 109.681 151.925 109.681C148.435 109.681 142.478 110.192 136.521 111.001C135.84 117.475 131.67 122.927 125.883 125.397C126.436 130.082 127.287 135.023 128.266 139.453H151.882V109.681H151.925Z" fill="black"/>
<path d="M128.266 139.496C129.287 144.053 130.436 148.099 131.585 150.868C135.074 159.301 146.308 167.692 151.882 171.653V139.496H128.266Z" fill="black"/>
<path d="M151.928 139.496V171.653C157.502 167.692 168.736 159.301 172.225 150.91C173.374 148.099 174.523 144.053 175.544 139.538H151.928V139.496Z" fill="black"/>
</g>
<path d="M171.626 107.042C171.626 105.977 171.753 104.997 172.008 104.017C164.775 102.74 155.115 101.675 149.754 101.675C144.605 101.675 135.371 102.697 128.18 103.89C128.435 104.869 128.605 105.934 128.605 107.042C128.605 113.345 123.627 118.499 117.414 118.797C118.18 129.19 120.861 143.373 124.01 150.997C129.244 163.647 147.328 174.806 149.754 176.765C152.137 174.806 170.264 163.647 175.498 150.997C178.647 143.33 181.37 129.147 182.093 118.712C176.221 118.073 171.626 113.09 171.626 107.042Z" fill="#00AAD2"/>
<path d="M173.375 137.366C174.396 132.808 175.247 127.783 175.8 122.97C170.396 120.371 166.566 115.133 165.885 108.999C159.758 108.147 153.418 107.551 149.801 107.551V137.366H173.375Z" fill="#0085AB"/>
<path d="M149.8 107.551C149.757 107.551 149.757 107.551 149.8 107.551C146.31 107.551 140.353 108.062 134.396 108.871C133.715 115.346 129.545 120.797 123.758 123.268C124.311 127.953 125.162 132.894 126.141 137.323H149.757V107.551H149.8Z" fill="#6FC6DF"/>
<path d="M126.143 137.366C127.164 141.923 128.313 145.969 129.462 148.738C132.951 157.171 144.185 165.562 149.759 169.523V137.366H126.143Z" fill="#0085AB"/>
<path d="M149.801 137.366V169.523C155.375 165.562 166.609 157.171 170.098 148.78C171.247 145.969 172.396 141.923 173.417 137.408H149.801V137.366Z" fill="#6FC6DF"/>
<path d="M162.392 133.064C162.392 131.531 161.158 130.296 159.626 130.296H139.924C138.392 130.296 137.158 131.531 137.158 133.064V133.916H162.392V133.064Z" fill="#BA891C"/>
<path d="M137.158 133.915V149.589C137.158 151.122 138.392 152.358 139.924 152.358H159.583C161.115 152.358 162.349 151.122 162.349 149.589V133.915H137.158Z" fill="#DAA021"/>
<path d="M158.307 130.254H155.839V122.033C155.839 119.308 153.626 117.135 150.946 117.135H148.563C145.839 117.135 143.669 119.35 143.669 122.033V130.254H141.201V122.033C141.201 117.987 144.52 114.665 148.563 114.665H150.946C154.988 114.665 158.307 117.987 158.307 122.033V130.254Z" fill="#DAA021"/>
<path d="M154.43 147.887L151.408 142.648C152.515 142.052 153.281 140.859 153.281 139.539C153.281 137.579 151.706 136.003 149.749 136.003C147.792 136.003 146.217 137.579 146.217 139.539C146.217 140.902 146.983 142.094 148.089 142.648L145.068 147.887C144.728 148.483 145.026 148.952 145.664 148.952H153.749C154.472 148.909 154.77 148.44 154.43 147.887Z" fill="#5B430D"/>
</svg>
