<svg width="49" height="44" viewBox="0 0 49 44" fill="none" xmlns="http://www.w3.org/2000/svg">
<g filter="url(#filter0_d_89_29916)">
<path fill-rule="evenodd" clip-rule="evenodd" d="M0 4.38016V24.5248C0.777407 26.7768 2.59006 27.5619 4.64304 27.9546C5.06142 28.0371 5.1412 28.1405 5.02152 28.5536C4.54282 30.3925 4.08455 32.2314 3.62628 34.0703L3.61168 34.1051C3.57471 34.1974 3.53579 34.293 3.60682 34.4216C3.7119 34.3532 3.82671 34.294 3.93763 34.2317C3.99406 34.1999 4.0505 34.1674 4.10498 34.1323C7.25353 32.2107 10.4215 30.2894 13.5701 28.3471C13.8493 28.1819 14.1276 28.0991 14.4662 28.0991H36.0069C37.3029 28.0991 38.558 27.8512 39.6536 27.1074C40.79 26.3223 41.4672 25.2686 41.4672 23.781C41.4468 17.6034 41.4468 11.4464 41.4672 5.2687C41.4672 3.24369 40.4904 1.88024 38.956 0.826497C38.0394 0.227243 37.0236 0 35.9475 0H6.09763C3.74595 0.0206813 1.9333 1.07442 0.577947 3.03713C0.298703 3.42983 0.179027 3.92567 0 4.38016ZM13.1916 13.3057C13.2111 14.8553 11.9365 16.1776 10.4215 16.1776C8.92705 16.1776 7.69137 14.8966 7.67191 13.347C7.67191 11.7768 8.92705 10.4751 10.442 10.4751C11.9365 10.4958 13.1712 11.7561 13.1916 13.3057ZM33.7759 13.347C33.736 14.9173 32.5003 16.1776 31.0058 16.1776C29.5113 16.1776 28.2756 14.8966 28.2562 13.347C28.2357 11.7974 29.5113 10.4751 31.0253 10.4751C32.5402 10.4751 33.7953 11.7974 33.7759 13.347ZM20.6835 16.1776C19.1696 16.1776 17.9533 14.8759 17.9738 13.2852C18.0137 11.715 19.2493 10.4547 20.7234 10.4751C22.2578 10.4958 23.473 11.7768 23.4536 13.3677C23.4331 14.938 22.178 16.1983 20.6835 16.1776Z" fill="url(#paint0_linear_89_29916)"/>
<path d="M45.9283 39.8401C46.0451 39.9233 46.1531 40 46.3097 40C46.3331 39.9289 46.3292 39.8575 46.3136 39.7864C46.3029 39.7337 46.2864 39.681 46.2698 39.6282L46.0023 38.5044C45.7989 37.6408 45.5956 36.7803 45.3727 35.9298C45.2735 35.5578 45.2735 35.4133 45.7318 35.3926C46.9071 35.3512 47.8042 34.7727 48.3822 33.7189C48.8404 32.8927 49 31.9835 49 31.0538V14.3801C49 13.9463 48.9601 13.5125 48.8599 13.0991C48.5417 11.7561 47.6252 10.9092 46.3097 10.7026C45.9867 10.6529 45.6637 10.6479 45.3406 10.6431C45.1256 10.6398 44.9106 10.6365 44.6956 10.6199C44.2772 10.5785 44.1974 10.723 44.1974 11.1364V25.5785C44.1974 26.0123 44.1779 26.4464 44.1176 26.8595C43.9785 27.7685 43.6593 28.5743 43.0415 29.2563C42.2047 30.1859 41.1286 30.4752 39.9328 30.4752H14.6267C14.5071 30.4752 14.367 30.4959 14.2482 30.4752C14.0284 30.4545 13.9291 30.5373 13.9291 30.7852C13.9087 31.5703 14.0488 32.2934 14.4672 32.9545C15.5228 34.6075 17.0173 35.434 18.9302 35.434C23.1938 35.4478 27.4661 35.443 31.7423 35.4385L38.1601 35.434C38.3138 35.434 38.4559 35.4463 38.5911 35.4733C38.8052 35.5162 39.0007 35.5964 39.1963 35.7232C41.4079 37.0867 43.6194 38.4297 45.831 39.7728L45.9283 39.8401Z" fill="url(#paint1_linear_89_29916)"/>
</g>
<defs>
<filter id="filter0_d_89_29916" x="0" y="0" width="49" height="43.1379" filterUnits="userSpaceOnUse" color-interpolation-filters="sRGB">
<feFlood flood-opacity="0" result="BackgroundImageFix"/>
<feColorMatrix in="SourceAlpha" type="matrix" values="0 0 0 0 0 0 0 0 0 0 0 0 0 0 0 0 0 0 127 0" result="hardAlpha"/>
<feOffset dy="3.13793"/>
<feComposite in2="hardAlpha" operator="out"/>
<feColorMatrix type="matrix" values="0 0 0 0 0 0 0 0 0 0 0 0 0 0 0 0 0 0 0.5 0"/>
<feBlend mode="normal" in2="BackgroundImageFix" result="effect1_dropShadow_89_29916"/>
<feBlend mode="normal" in="SourceGraphic" in2="effect1_dropShadow_89_29916" result="shape"/>
</filter>
<linearGradient id="paint0_linear_89_29916" x1="24.5" y1="39.9598" x2="24.5" y2="0" gradientUnits="userSpaceOnUse">
<stop stop-color="#BD8600"/>
<stop offset="1" stop-color="#FBE794"/>
</linearGradient>
<linearGradient id="paint1_linear_89_29916" x1="24.5" y1="39.9598" x2="24.5" y2="0" gradientUnits="userSpaceOnUse">
<stop stop-color="#BD8600"/>
<stop offset="1" stop-color="#FBE794"/>
</linearGradient>
</defs>
</svg>
