<svg width="34" height="34" viewBox="0 0 34 34" fill="none" xmlns="http://www.w3.org/2000/svg">
<path d="M27.2286 32.8382C28.7777 34.3873 31.2893 34.3873 32.8384 32.8382C34.3874 31.2891 34.3874 28.7776 32.8384 27.2285L22.6098 16.9999L32.8382 6.77152C34.3873 5.22245 34.3873 2.71089 32.8382 1.16181C31.2891 -0.387269 28.7776 -0.387269 27.2285 1.16181L17.0001 11.3902L6.77169 1.16181C5.22261 -0.38727 2.71105 -0.38727 1.16197 1.16181C-0.387105 2.71089 -0.387105 5.22244 1.16197 6.77152L11.3904 16.9999L1.16181 27.2285C-0.38727 28.7776 -0.38727 31.2891 1.16181 32.8382C2.71089 34.3873 5.22244 34.3873 6.77152 32.8382L17.0001 22.6096L27.2286 32.8382Z" fill="white"/>
</svg>
