<svg width="40" height="40" viewBox="0 0 40 40" fill="none" xmlns="http://www.w3.org/2000/svg">
<path d="M9.40179 23.4936H13.3187C13.2499 23.4154 13.1941 23.3512 13.1459 23.2958C13.0677 23.206 13.0098 23.1394 12.95 23.0742C12.233 22.2952 11.8643 21.376 11.8512 20.3141C11.8393 19.3781 12.2843 19.0785 13.1159 19.4752C13.852 19.8276 14.612 19.9498 15.4137 19.7736C17.5338 19.3074 19.1051 16.279 17.1067 14.262C15.3863 12.5254 13.6694 10.7841 11.9562 9.04032C11.8142 8.89521 11.6853 8.7369 11.5645 8.58842C11.5107 8.52231 11.4585 8.45814 11.4074 8.39795C10.819 8.9834 10.2354 9.56006 9.65679 10.1319C8.24306 11.5289 6.85851 12.8971 5.50399 14.2943C4.64497 15.1812 4.43141 16.3077 4.80007 17.5026C5.41212 19.4836 7.61575 20.3908 9.54734 19.4716C10.3384 19.0953 10.8037 19.3734 10.8084 20.229C10.8144 21.3244 10.4338 22.2688 9.70245 23.0778C9.63715 23.1497 9.58171 23.2315 9.5156 23.329C9.48145 23.3794 9.44446 23.434 9.40179 23.4936Z" fill="white"/>
<path fill-rule="evenodd" clip-rule="evenodd" d="M22.6751 18.5726C22.6748 17.6983 22.6745 16.8239 22.6745 15.9495L22.6733 15.9483H22.6638C22.6638 14.6397 22.6642 13.331 22.6646 12.0222L22.6646 12.0029C22.6654 9.37219 22.6662 6.7411 22.6638 4.11002C22.6614 1.63402 21.0376 0.000532644 18.5858 0.000532644C15.3614 -0.000266311 12.1374 -7.30506e-09 8.91334 0.000266311L4.07676 0.000532644C1.61543 0.00173109 0 1.62683 0 4.10402V27.3779C0 29.8995 1.58918 31.5042 4.0863 31.5054C7.21138 31.5062 10.3365 31.5059 13.4615 31.5056L18.1492 31.5054L18.3055 31.5056C18.5662 31.5061 18.8274 31.5066 19.0869 31.4946C20.7584 31.4155 22.313 30.0636 22.5671 28.411C22.6673 27.7651 22.6685 27.1001 22.6697 26.4435C22.6769 23.8197 22.676 21.196 22.6751 18.5726ZM14.058 21.2487C13.8352 21.2406 13.605 21.2323 13.3649 21.2323C13.444 21.3363 13.5187 21.4396 13.592 21.5409C13.7476 21.756 13.8969 21.9625 14.0688 22.1491C14.5091 22.6285 14.7668 23.1534 14.6081 23.8161C14.4303 24.5568 13.7515 25.0122 12.8745 24.999C12.6063 24.9949 12.338 24.9901 12.0697 24.9853C11.238 24.9704 10.4062 24.9555 9.57448 24.9618C8.88369 24.9666 8.38259 24.6958 8.13562 24.0522C7.88746 23.4051 7.97098 22.8034 8.47326 22.2737C8.67264 22.0627 8.84698 21.8282 9.02143 21.5936C9.0996 21.4885 9.17784 21.3833 9.25831 21.2802L9.17241 21.1735L9.03547 21.1936C8.89859 21.2138 8.76167 21.2341 8.62479 21.2502C6.52974 21.4995 4.61126 20.4425 3.6902 18.5322C2.80016 16.6854 3.16644 14.6024 4.65779 13.0912C6.53212 11.1917 8.41123 9.29571 10.2903 7.40096C11.0217 6.66271 11.617 6.66271 12.352 7.40096C14.243 9.3041 16.134 11.2084 18.0239 13.114C19.3971 14.4994 19.767 16.1532 19.1645 17.9773C18.5632 19.7965 17.2842 20.9291 15.3717 21.2179C14.9526 21.281 14.5216 21.2654 14.058 21.2487ZM17.7793 25.1584H18.8877L18.8889 25.1596L18.7792 25.3459C18.6631 25.5432 18.5542 25.7284 18.4116 25.9697C18.4918 25.9475 18.5547 25.9288 18.6072 25.9132C18.6929 25.8878 18.751 25.8706 18.8101 25.8595C19.217 25.7804 19.5463 25.9086 19.767 26.2646C19.9925 26.6277 19.9424 26.9848 19.6596 27.2904C19.3646 27.6089 19.0599 27.9183 18.7352 28.248L18.7345 28.2488C18.6037 28.3816 18.4697 28.5177 18.3317 28.6591C18.1917 28.5121 18.051 28.3695 17.9118 28.2285C17.5506 27.8625 17.1989 27.5062 16.8976 27.1119C16.7592 26.9297 16.7664 26.4947 16.8916 26.2897C17.0142 26.091 17.3044 25.9799 17.5605 25.8818C17.5886 25.8711 17.6163 25.8604 17.6433 25.8499C17.7186 25.8202 17.8157 25.8475 17.9494 25.885C18.021 25.9051 18.1032 25.9282 18.1981 25.947C18.1255 25.8106 18.0609 25.6888 17.9982 25.5705C17.9258 25.434 17.856 25.3022 17.7793 25.1584ZM4.87374 6.3619H3.7761C3.85468 6.22514 3.9242 6.10442 3.99545 5.98073C4.06591 5.8584 4.13808 5.73309 4.22232 5.58651C4.13975 5.59965 4.06979 5.61166 4.00807 5.62226C3.88963 5.64259 3.8015 5.65773 3.71287 5.6656C3.33705 5.70036 3.04236 5.55894 2.86578 5.21858C2.6904 4.88062 2.71426 4.54026 2.97435 4.26462C3.26842 3.95268 3.57557 3.65216 3.90208 3.3327C4.04849 3.18945 4.19879 3.0424 4.35355 2.8888C4.50149 3.04476 4.6537 3.19632 4.80542 3.34739C5.14803 3.68853 5.48814 4.02718 5.77094 4.40843C6.16227 4.93575 5.71247 5.668 5.04912 5.6692C4.94647 5.6692 4.84332 5.64964 4.71059 5.62447C4.63816 5.61074 4.55689 5.59532 4.46213 5.58051L4.55057 5.7488C4.65878 5.95474 4.75775 6.14309 4.87374 6.3619Z" fill="white"/>
<path fill-rule="evenodd" clip-rule="evenodd" d="M24.1132 5.46899V16.2622L24.1144 16.2634C24.4787 16.0803 24.8371 15.8996 25.1913 15.7211L25.1975 15.7179C26.0697 15.2783 26.9173 14.851 27.7677 14.4298C28.499 14.0667 29.1111 14.268 29.4773 15.0027C29.771 15.5917 30.0657 16.1802 30.3605 16.7687C31.3148 18.6742 32.2694 20.5801 33.1854 22.5038C34.7758 25.8414 32.1833 29.595 28.5217 29.2546C27.9974 29.2062 27.4831 29.0528 26.9648 28.8982C26.7259 28.8269 26.4861 28.7554 26.2441 28.6937C26.2501 28.6566 26.2214 28.7177 26.2369 28.7657C26.2644 28.8517 26.2915 28.9379 26.3185 29.0241C26.4207 29.3497 26.5228 29.6752 26.6474 29.9917C26.8991 30.634 26.7714 31.2081 26.3288 31.6947C25.879 32.1884 25.3051 32.2519 24.6871 32.041C24.4664 31.9658 24.2447 31.8933 24.023 31.8208C23.6656 31.7041 23.3081 31.5872 22.9548 31.4586C22.7185 31.3723 22.5599 31.3879 22.3606 31.5688C21.3358 32.4976 20.1307 32.9578 18.7408 32.9506C17.0338 32.9414 15.3263 32.9434 13.619 32.9454C12.9003 32.9462 12.1816 32.947 11.463 32.947H10.9512C11.4845 34.0712 12.2874 34.7243 13.3552 35.0815C15.0165 35.6373 16.6774 36.1944 18.3382 36.7515C21.2288 37.7211 24.1194 38.6907 27.0124 39.6536C27.4885 39.8118 27.986 39.9628 28.4811 39.9927C30.266 40.0994 31.7394 39.0244 32.3419 37.2171C34.8104 29.8167 37.2753 22.4151 39.7319 15.011C39.8667 14.6048 39.9729 14.1721 39.9944 13.7467C40.0862 11.973 39.0292 10.4713 37.2706 9.87689C34.3451 8.88872 31.4173 7.90869 28.4896 6.92871C27.2169 6.50267 25.9441 6.07665 24.6716 5.64996C24.5315 5.60303 24.3898 5.55764 24.2338 5.50765L24.1132 5.46899ZM28.4554 36.6406C28.2672 36.7361 28.0761 36.833 27.8822 36.9343V36.9367C27.7892 36.7452 27.6965 36.5595 27.6055 36.3772C27.3919 35.9492 27.1878 35.5401 27.0112 35.1198C26.8669 34.7759 26.9802 34.4379 27.2725 34.1934C27.5672 33.9478 27.8953 33.9382 28.2306 34.1047C28.2974 34.1383 28.3598 34.1816 28.4489 34.2435C28.4965 34.2765 28.5519 34.315 28.6195 34.36L28.4489 33.4061C28.8259 33.5259 29.1516 33.6302 29.5549 33.7596L28.8295 34.402C28.912 34.4114 28.984 34.4139 29.0464 34.4161C29.1591 34.4201 29.2403 34.423 29.2948 34.4631C29.3396 34.496 29.3862 34.5288 29.4333 34.5619C29.6484 34.713 29.8738 34.8715 29.9784 35.0827C30.1371 35.4039 30.013 35.791 29.6849 35.9839C29.29 36.2171 28.8797 36.4253 28.4554 36.6406Z" fill="white"/>
<path d="M28.9782 17.2174L29.3374 17.9412C29.5714 18.4137 29.8058 18.8861 30.0402 19.3586L30.0417 19.3616C30.6422 20.5717 31.2426 21.7818 31.8369 22.9939C32.5898 24.5303 32.2068 26.2309 30.9015 27.2052C29.5939 28.1808 27.7339 28.0489 26.5158 26.8948C25.782 26.1997 25.2738 26.3352 24.9827 27.3131C24.6939 28.2802 24.7536 29.2294 25.1557 30.157C25.1961 30.2504 25.235 30.3443 25.2902 30.4774C25.3213 30.5525 25.358 30.6409 25.4026 30.7478C24.6904 30.5153 24.1022 30.3224 23.4746 30.1163C24.0914 28.8962 24.1236 27.6247 24.1081 26.3292C24.089 24.7429 24.0913 23.1562 24.0936 21.5694C24.0952 20.4803 24.0968 19.3911 24.0914 18.3019C24.0902 17.9892 24.1845 17.8262 24.4649 17.6907C25.2665 17.3012 26.0617 16.8985 26.857 16.4958C27.1897 16.3273 27.5224 16.1589 27.8556 15.9913C27.9481 15.9453 28.043 15.9035 28.146 15.8582C28.1877 15.8398 28.2308 15.8208 28.2756 15.8008C28.513 16.2802 28.7463 16.7502 28.9782 17.2174Z" fill="white"/>
</svg>
