<svg width="28" height="27" viewBox="0 0 28 27" fill="none" xmlns="http://www.w3.org/2000/svg">
<path d="M13.9956 9.04099C11.5683 9.04099 9.58748 11.0218 9.58748 13.4491C9.58748 15.8763 11.5683 17.8571 13.9956 17.8571C16.4228 17.8571 18.4036 15.8763 18.4036 13.4491C18.4036 11.0218 16.4228 9.04099 13.9956 9.04099ZM27.2165 13.4491C27.2165 11.6237 27.233 9.8148 27.1305 7.99271C27.028 5.8763 26.5452 3.99799 24.9976 2.45037C23.4466 0.899443 21.5716 0.419945 19.4552 0.317431C17.6298 0.214918 15.821 0.231452 13.9989 0.231452C12.1735 0.231452 10.3646 0.214918 8.54251 0.317431C6.42611 0.419945 4.5478 0.90275 3.00017 2.45037C1.44925 4.0013 0.969749 5.8763 0.867236 7.99271C0.764723 9.81811 0.781257 11.627 0.781257 13.4491C0.781257 15.2712 0.764723 17.0833 0.867236 18.9054C0.969749 21.0218 1.45255 22.9001 3.00017 24.4478C4.5511 25.9987 6.42611 26.4782 8.54251 26.5807C10.3679 26.6832 12.1768 26.6667 13.9989 26.6667C15.8243 26.6667 17.6331 26.6832 19.4552 26.5807C21.5716 26.4782 23.4499 25.9954 24.9976 24.4478C26.5485 22.8968 27.028 21.0218 27.1305 18.9054C27.2363 17.0833 27.2165 15.2745 27.2165 13.4491ZM13.9956 20.2315C10.2422 20.2315 7.21314 17.2024 7.21314 13.4491C7.21314 9.69576 10.2422 6.66665 13.9956 6.66665C17.7489 6.66665 20.778 9.69576 20.778 13.4491C20.778 17.2024 17.7489 20.2315 13.9956 20.2315ZM21.0558 7.97287C20.1794 7.97287 19.4718 7.2652 19.4718 6.38887C19.4718 5.51255 20.1794 4.80487 21.0558 4.80487C21.9321 4.80487 22.6397 5.51255 22.6397 6.38887C22.64 6.59696 22.5992 6.80305 22.5197 6.99535C22.4402 7.18765 22.3235 7.36237 22.1764 7.50951C22.0292 7.65665 21.8545 7.77332 21.6622 7.85283C21.4699 7.93234 21.2638 7.97313 21.0558 7.97287Z" fill="#FFB000" fill-opacity="0.86"/>
</svg>
