<svg width="34" height="35" viewBox="0 0 34 35" fill="none" xmlns="http://www.w3.org/2000/svg">
<path d="M23.7374 20.3554C23.377 20.1702 21.5813 19.2906 21.2473 19.1715C20.9133 19.0459 20.6686 18.9863 20.4272 19.3567C20.1825 19.7238 19.4881 20.5406 19.2698 20.7886C19.0582 21.0333 18.8432 21.0631 18.4828 20.8812C16.3399 19.8098 14.9345 18.9698 13.5224 16.5459C13.1488 15.901 13.8961 15.9473 14.5939 14.5551C14.7129 14.3104 14.6534 14.1021 14.5608 13.9169C14.4682 13.7317 13.7407 11.9394 13.4365 11.2085C13.1422 10.4976 12.8379 10.5968 12.6164 10.5835C12.4047 10.5703 12.1633 10.5703 11.9186 10.5703C11.6739 10.5703 11.2804 10.6629 10.9464 11.0234C10.6124 11.3904 9.66992 12.2734 9.66992 14.0657C9.66992 15.858 10.9761 17.5941 11.1547 17.8388C11.3399 18.0836 13.7242 21.7608 17.3849 23.3448C19.6997 24.3435 20.6058 24.4295 21.7632 24.2575C22.4676 24.1517 23.9193 23.3779 24.2202 22.5214C24.5211 21.6682 24.5211 20.9374 24.4319 20.7853C24.3426 20.6232 24.0979 20.5307 23.7374 20.3554Z" fill="#FFB000" fill-opacity="0.86"/>
<path d="M30.7388 11.7069C29.9915 9.93111 28.9201 8.33719 27.5543 6.96814C26.1886 5.6024 24.5947 4.52766 22.8155 3.78361C20.9968 3.01972 19.0655 2.63281 17.0748 2.63281H17.0087C15.0047 2.64273 13.0635 3.03956 11.2381 3.81998C9.47558 4.57395 7.89489 5.64538 6.54237 7.01113C5.18985 8.37687 4.12834 9.96418 3.39421 11.7334C2.63363 13.5654 2.25003 15.5131 2.25995 17.5171C2.26987 19.8121 2.81882 22.0905 3.84726 24.1276V29.154C3.84726 29.994 4.52848 30.6752 5.36842 30.6752H10.3982C12.4352 31.7036 14.7137 32.2526 17.0087 32.2625H17.0781C19.0589 32.2625 20.9802 31.8789 22.7891 31.1282C24.5583 30.3908 26.1489 29.3326 27.5113 27.9801C28.8771 26.6276 29.9518 25.0469 30.7025 23.2843C31.4829 21.4589 31.8797 19.5178 31.8896 17.5138C31.8996 15.4999 31.5093 13.5455 30.7388 11.7069ZM25.7421 26.1911C23.424 28.486 20.3486 29.7493 17.0748 29.7493H17.0186C15.0245 29.7393 13.0437 29.2433 11.2944 28.3108L11.0166 28.162H6.36049V23.5059L6.21168 23.2281C5.27914 21.4787 4.78311 19.4979 4.77319 17.5039C4.75996 14.2069 6.01988 11.1117 8.33139 8.78031C10.6396 6.44896 13.7249 5.15927 17.0219 5.14604H17.0781C18.7315 5.14604 20.3354 5.46681 21.8466 6.10173C23.3215 6.72012 24.6443 7.60967 25.7818 8.74724C26.9161 9.8815 27.8089 11.2076 28.4273 12.6824C29.0689 14.2102 29.3896 15.8306 29.383 17.5039C29.3632 20.7975 28.0702 23.8829 25.7421 26.1911Z" fill="#FFB000" fill-opacity="0.86"/>
</svg>
