<svg width="75" height="75" viewBox="0 0 75 74" fill="none" xmlns="http://www.w3.org/2000/svg">
<rect x="2.16208" y="1.23337" width="71.5352" height="71.5352" rx="35.7676" fill="#212467" stroke="white" stroke-width="2.46673"/>
<path fill-rule="evenodd" clip-rule="evenodd" d="M50.3058 28.4818C51.7168 28.515 52.9705 29.5224 53.3527 30.8746H53.3537C53.3895 30.9994 53.4217 31.1254 53.4539 31.2513C53.4651 31.2949 53.4763 31.3385 53.4875 31.3821V46.1187C53.4831 46.126 53.4779 46.1332 53.4728 46.1405C53.4607 46.1576 53.4485 46.1748 53.4447 46.1936C53.0657 48.0114 51.8132 49.0403 49.9578 49.0403C42.2068 49.0424 34.4558 49.0413 26.7047 49.0392C26.4585 49.0392 26.2091 49.0339 25.9682 48.99C24.3098 48.6881 23.1889 47.3348 23.1868 45.624C23.1838 42.442 23.1845 39.2595 23.1851 36.0771C23.1854 34.7133 23.1857 33.3495 23.1857 31.9859C23.1868 29.9004 24.6075 28.4743 26.6908 28.4679C27.4923 28.4665 28.2942 28.467 29.0963 28.4674C29.4975 28.4677 29.8986 28.4679 30.2998 28.4679H30.652V27.4691C30.6573 25.6416 31.9088 24.3804 33.7342 24.3772C36.8014 24.3719 39.8686 24.374 42.9359 24.3794C43.2185 24.3794 43.5129 24.3965 43.7838 24.4704C45.1712 24.8515 46.0084 25.9628 46.0202 27.407C46.0216 27.6331 46.0212 27.8592 46.0207 28.0946C46.0205 28.2158 46.0202 28.3395 46.0202 28.4668H46.4013C46.8034 28.4678 47.2054 28.4667 47.6075 28.4655C48.5072 28.463 49.4067 28.4604 50.3058 28.4818ZM30.9389 38.7541C30.94 42.8191 34.2791 46.1583 38.3377 46.154C42.4049 46.1497 45.7344 42.817 45.7333 38.752C45.7322 34.6837 42.4038 31.3564 38.3356 31.3574C34.2663 31.3585 30.9389 34.6869 30.9389 38.7541ZM33.4512 38.7467C33.464 36.0446 35.6662 33.8542 38.3577 33.8681L38.3587 33.867C41.0406 33.8809 43.231 36.0842 43.2224 38.7585C43.2138 41.4585 41.0117 43.6468 38.3159 43.635C35.6309 43.6232 33.4383 41.42 33.4512 38.7467Z" fill="white"/>
</svg>
