<svg width="47" height="47" viewBox="0 0 47 47" fill="none" xmlns="http://www.w3.org/2000/svg">
<g filter="url(#filter0_ddi_384_95784)">
<mask id="path-1-inside-1_384_95784" fill="white">
<path d="M14 11.9224C14 9.75613 15.7561 8 17.9224 8H29.6897C31.8559 8 33.6121 9.75612 33.6121 11.9224V23.6897C33.6121 25.8559 31.8559 27.6121 29.6897 27.6121H17.9224C15.7561 27.6121 14 25.8559 14 23.6897V11.9224Z"/>
</mask>
<path d="M14 11.9224C14 9.75613 15.7561 8 17.9224 8H29.6897C31.8559 8 33.6121 9.75612 33.6121 11.9224V23.6897C33.6121 25.8559 31.8559 27.6121 29.6897 27.6121H17.9224C15.7561 27.6121 14 25.8559 14 23.6897V11.9224Z" fill="url(#paint0_linear_384_95784)"/>
<path d="M14 8H33.6121H14ZM34.0043 23.6897C34.0043 26.0726 32.0726 28.0043 29.6897 28.0043H17.9224C15.5395 28.0043 13.6078 26.0726 13.6078 23.6897H14.3922C14.3922 25.6393 15.9728 27.2198 17.9224 27.2198H29.6897C31.6393 27.2198 33.2198 25.6393 33.2198 23.6897H34.0043ZM17.9224 28.0043C15.5395 28.0043 13.6078 26.0726 13.6078 23.6897V12.3147C13.6078 9.93174 15.5395 8 17.9224 8C15.9728 8 14.3922 9.75612 14.3922 11.9224V23.6897C14.3922 25.6393 15.9728 27.2198 17.9224 27.2198V28.0043ZM29.6897 8C32.0726 8 34.0043 9.93174 34.0043 12.3147V23.6897C34.0043 26.0726 32.0726 28.0043 29.6897 28.0043V27.2198C31.6393 27.2198 33.2198 25.6393 33.2198 23.6897V11.9224C33.2198 9.75612 31.6393 8 29.6897 8Z" fill="#A237C1" mask="url(#path-1-inside-1_384_95784)"/>
</g>
<g filter="url(#filter1_d_384_95784)">
<path d="M23.4653 10.7457C23.5261 10.7572 23.5871 10.7678 23.6481 10.7785C23.7801 10.8015 23.9121 10.8245 24.0418 10.8568C25.0748 11.1144 25.7861 11.9115 25.9293 13.0016C26.0985 14.2894 25.8686 15.5088 25.2443 16.6366C24.8625 17.3266 24.286 17.7753 23.5048 17.8752C22.5795 17.9935 21.8056 17.691 21.2361 16.9115C20.7662 16.2684 20.5416 15.5229 20.4109 14.7414C20.3304 14.2604 20.2789 13.7776 20.3301 13.2888C20.4205 12.4282 20.7318 11.6936 21.4615 11.2013C21.8386 10.9469 22.2609 10.8251 22.7051 10.7721C22.738 10.7682 22.7704 10.7615 22.8029 10.7548C22.8182 10.7517 22.8335 10.7485 22.8489 10.7457H23.4653Z" fill="url(#paint1_linear_384_95784)"/>
<path d="M24.6378 24.0724C24.5533 24.081 24.4697 24.0898 24.3868 24.0986C24.2098 24.1174 24.0357 24.1358 23.8613 24.1501C22.6572 24.2489 21.4749 24.0759 20.2996 23.8329C19.635 23.6956 18.9771 23.5301 18.3441 23.2742C18.0144 23.1409 17.9075 22.9887 17.9246 22.6268C17.9735 21.5923 18.1064 20.5692 18.3791 19.5713C18.4496 19.3136 18.5645 19.0646 18.6887 18.828C18.9111 18.4049 19.3041 18.2094 19.7242 18.0534C20.0968 17.915 20.4654 17.7647 20.8316 17.609C20.9099 17.5758 20.9423 17.6102 20.9824 17.6529L20.9885 17.6593C21.398 18.0914 21.8849 18.3882 22.4614 18.5051C23.5223 18.7198 24.4733 18.4964 25.2635 17.704C25.3614 17.6058 25.4269 17.5934 25.5558 17.6496C25.8201 17.7642 26.0886 17.8687 26.357 17.9731C26.526 18.0389 26.695 18.1046 26.8629 18.1729C27.137 18.2843 27.3675 18.4581 27.5459 18.7284C26.2025 18.7276 25.1527 19.2782 24.4977 20.4768C23.8412 21.6783 23.9332 22.887 24.6381 24.0727L24.6378 24.0724Z" fill="url(#paint2_linear_384_95784)"/>
<path fill-rule="evenodd" clip-rule="evenodd" d="M30.0263 22.1377C30.0243 20.638 28.8205 19.4028 27.3699 19.4123C25.9057 19.4218 24.7169 20.6524 24.7262 22.1495C24.7354 23.6556 25.932 24.8767 27.3881 24.8663C28.8448 24.8559 30.0283 23.632 30.0263 22.1377ZM28.0557 22.6064C27.982 22.6061 27.9073 22.6058 27.8312 22.6058C27.8312 22.6812 27.8315 22.7552 27.8318 22.8284C27.8326 22.9947 27.8333 23.1563 27.83 23.3179C27.825 23.5753 27.6577 23.7699 27.4315 23.7926C27.1523 23.8205 26.9308 23.6256 26.9238 23.3366C26.9198 23.1733 26.9207 23.0099 26.9218 22.8409C26.9222 22.7636 26.9227 22.6851 26.9227 22.6049C26.8468 22.6049 26.7719 22.6054 26.6978 22.6059C26.5313 22.607 26.3686 22.6081 26.2061 22.6035C25.9188 22.5954 25.7213 22.3369 25.7723 22.0476C25.8106 21.8303 25.9969 21.676 26.2374 21.6711C26.3903 21.6682 26.5432 21.6689 26.7019 21.6696C26.774 21.6699 26.8474 21.6703 26.9224 21.6703C26.9224 21.5936 26.922 21.5179 26.9215 21.4428C26.9206 21.2759 26.9197 21.1122 26.9235 20.9486C26.9314 20.6107 27.2452 20.389 27.5414 20.5134C27.7352 20.5948 27.8278 20.7543 27.8312 20.9676C27.8334 21.1177 27.8341 21.2677 27.8349 21.4178C27.8353 21.4928 27.8356 21.5679 27.8362 21.6429C27.8362 21.6452 27.8379 21.6474 27.8423 21.6532C27.8453 21.6571 27.8495 21.6626 27.8552 21.6708C27.92 21.6708 27.986 21.6703 28.0527 21.6698C28.2062 21.6687 28.3639 21.6675 28.5215 21.6723C28.8568 21.6826 29.0683 21.9901 28.9598 22.2998C28.8963 22.4811 28.736 22.6015 28.5391 22.6049C28.3796 22.6077 28.2201 22.6071 28.0557 22.6064Z" fill="url(#paint3_linear_384_95784)"/>
</g>
<defs>
<filter id="filter0_ddi_384_95784" x="0.663793" y="0.155172" width="46.2847" height="46.2845" filterUnits="userSpaceOnUse" color-interpolation-filters="sRGB">
<feFlood flood-opacity="0" result="BackgroundImageFix"/>
<feColorMatrix in="SourceAlpha" type="matrix" values="0 0 0 0 0 0 0 0 0 0 0 0 0 0 0 0 0 0 127 0" result="hardAlpha"/>
<feOffset dy="5.49138"/>
<feGaussianBlur stdDeviation="6.6681"/>
<feComposite in2="hardAlpha" operator="out"/>
<feColorMatrix type="matrix" values="0 0 0 0 0 0 0 0 0 0 0 0 0 0 0 0 0 0 0.75 0"/>
<feBlend mode="normal" in2="BackgroundImageFix" result="effect1_dropShadow_384_95784"/>
<feColorMatrix in="SourceAlpha" type="matrix" values="0 0 0 0 0 0 0 0 0 0 0 0 0 0 0 0 0 0 127 0" result="hardAlpha"/>
<feMorphology radius="0.196121" operator="dilate" in="SourceAlpha" result="effect2_dropShadow_384_95784"/>
<feOffset dy="2.35345"/>
<feGaussianBlur stdDeviation="0.196121"/>
<feComposite in2="hardAlpha" operator="out"/>
<feColorMatrix type="matrix" values="0 0 0 0 0.269378 0 0 0 0 0.0028125 0 0 0 0 0.3375 0 0 0 1 0"/>
<feBlend mode="normal" in2="effect1_dropShadow_384_95784" result="effect2_dropShadow_384_95784"/>
<feBlend mode="normal" in="SourceGraphic" in2="effect2_dropShadow_384_95784" result="shape"/>
<feColorMatrix in="SourceAlpha" type="matrix" values="0 0 0 0 0 0 0 0 0 0 0 0 0 0 0 0 0 0 127 0" result="hardAlpha"/>
<feOffset/>
<feGaussianBlur stdDeviation="2.74569"/>
<feComposite in2="hardAlpha" operator="arithmetic" k2="-1" k3="1"/>
<feColorMatrix type="matrix" values="0 0 0 0 0 0 0 0 0 0 0 0 0 0 0 0 0 0 0.25 0"/>
<feBlend mode="normal" in2="shape" result="effect3_innerShadow_384_95784"/>
</filter>
<filter id="filter1_d_384_95784" x="17.9229" y="10.7457" width="12.1035" height="14.9051" filterUnits="userSpaceOnUse" color-interpolation-filters="sRGB">
<feFlood flood-opacity="0" result="BackgroundImageFix"/>
<feColorMatrix in="SourceAlpha" type="matrix" values="0 0 0 0 0 0 0 0 0 0 0 0 0 0 0 0 0 0 127 0" result="hardAlpha"/>
<feOffset dy="0.784483"/>
<feComposite in2="hardAlpha" operator="out"/>
<feColorMatrix type="matrix" values="0 0 0 0 0 0 0 0 0 0 0 0 0 0 0 0 0 0 0.5 0"/>
<feBlend mode="normal" in2="BackgroundImageFix" result="effect1_dropShadow_384_95784"/>
<feBlend mode="normal" in="SourceGraphic" in2="effect1_dropShadow_384_95784" result="shape"/>
</filter>
<linearGradient id="paint0_linear_384_95784" x1="23.806" y1="7.18283" x2="23.806" y2="31.085" gradientUnits="userSpaceOnUse">
<stop stop-color="#A84BC0"/>
<stop offset="1" stop-color="#722489"/>
</linearGradient>
<linearGradient id="paint1_linear_384_95784" x1="23.9746" y1="24.8522" x2="23.9746" y2="10.7457" gradientUnits="userSpaceOnUse">
<stop stop-color="#BD8600"/>
<stop offset="1" stop-color="#FBE794"/>
</linearGradient>
<linearGradient id="paint2_linear_384_95784" x1="23.9746" y1="24.8522" x2="23.9746" y2="10.7457" gradientUnits="userSpaceOnUse">
<stop stop-color="#BD8600"/>
<stop offset="1" stop-color="#FBE794"/>
</linearGradient>
<linearGradient id="paint3_linear_384_95784" x1="23.9746" y1="24.8522" x2="23.9746" y2="10.7457" gradientUnits="userSpaceOnUse">
<stop stop-color="#BD8600"/>
<stop offset="1" stop-color="#FBE794"/>
</linearGradient>
</defs>
</svg>
