<svg width="14" height="15" viewBox="0 0 14 15" fill="none" xmlns="http://www.w3.org/2000/svg">
<g filter="url(#filter0_d_191_30485)">
<path fill-rule="evenodd" clip-rule="evenodd" d="M8.35057 1.59576C8.94154 1.73332 9.50503 1.96718 9.99979 2.28358L11.3741 1.41692L12.5698 2.61374L11.704 3.98939C12.0201 4.48463 12.2537 5.04865 12.3912 5.64018L13.9854 5.99785V7.70366L12.3912 8.06133C12.2537 8.65286 12.0201 9.21688 11.704 9.71211L12.5698 11.0878L11.3741 12.2846L9.99979 11.4179C9.50503 11.7343 8.94154 11.9682 8.35057 12.1057L7.99324 13.7015H6.28904L5.93171 12.1057C5.34074 11.9682 4.77726 11.7343 4.28249 11.4179L2.90814 12.2846L1.71246 11.0878L2.5783 9.71211C2.2622 9.21688 2.02856 8.65286 1.89112 8.06133L0.296875 7.70366V5.99785L1.89112 5.64018C2.02856 5.04865 2.2622 4.48463 2.5783 3.98939L1.71246 2.61374L2.90814 1.41692L4.28249 2.28358C4.77726 1.96718 5.34074 1.73332 5.93171 1.59576L6.28904 0H7.99324L8.35057 1.59576ZM7.14114 3.63172C8.91405 3.63172 10.3571 5.07616 10.3571 6.85075C10.3571 8.62534 8.91405 10.0698 7.14114 10.0698C5.36823 10.0698 3.92516 8.62534 3.92516 6.85075C3.92516 5.07616 5.36823 3.63172 7.14114 3.63172Z" fill="url(#paint0_linear_191_30485)"/>
</g>
<defs>
<filter id="filter0_d_191_30485" x="0.296875" y="0" width="13.6895" height="14.4138" filterUnits="userSpaceOnUse" color-interpolation-filters="sRGB">
<feFlood flood-opacity="0" result="BackgroundImageFix"/>
<feColorMatrix in="SourceAlpha" type="matrix" values="0 0 0 0 0 0 0 0 0 0 0 0 0 0 0 0 0 0 127 0" result="hardAlpha"/>
<feOffset dy="0.712342"/>
<feComposite in2="hardAlpha" operator="out"/>
<feColorMatrix type="matrix" values="0 0 0 0 0.266667 0 0 0 0 0.0431373 0 0 0 0 0.388235 0 0 0 1 0"/>
<feBlend mode="normal" in2="BackgroundImageFix" result="effect1_dropShadow_191_30485"/>
<feBlend mode="normal" in="SourceGraphic" in2="effect1_dropShadow_191_30485" result="shape"/>
</filter>
<linearGradient id="paint0_linear_191_30485" x1="7.14114" y1="13.6877" x2="7.14114" y2="0" gradientUnits="userSpaceOnUse">
<stop stop-color="#BD8600"/>
<stop offset="1" stop-color="#FBE794"/>
</linearGradient>
</defs>
</svg>
