<svg width="47" height="47" viewBox="0 0 47 47" fill="none" xmlns="http://www.w3.org/2000/svg">
<g filter="url(#filter0_ddi_384_95787)">
<mask id="path-1-inside-1_384_95787" fill="white">
<path d="M13.6123 11.9224C13.6123 9.75613 15.3684 8 17.5347 8H29.302C31.4682 8 33.2244 9.75612 33.2244 11.9224V23.6897C33.2244 25.8559 31.4682 27.6121 29.302 27.6121H17.5347C15.3684 27.6121 13.6123 25.8559 13.6123 23.6897V11.9224Z"/>
</mask>
<path d="M13.6123 11.9224C13.6123 9.75613 15.3684 8 17.5347 8H29.302C31.4682 8 33.2244 9.75612 33.2244 11.9224V23.6897C33.2244 25.8559 31.4682 27.6121 29.302 27.6121H17.5347C15.3684 27.6121 13.6123 25.8559 13.6123 23.6897V11.9224Z" fill="url(#paint0_linear_384_95787)"/>
<path d="M13.6123 8H33.2244H13.6123ZM33.6166 23.6897C33.6166 26.0726 31.6849 28.0043 29.302 28.0043H17.5347C15.1518 28.0043 13.2201 26.0726 13.2201 23.6897H14.0045C14.0045 25.6393 15.5851 27.2198 17.5347 27.2198H29.302C31.2516 27.2198 32.8321 25.6393 32.8321 23.6897H33.6166ZM17.5347 28.0043C15.1518 28.0043 13.2201 26.0726 13.2201 23.6897V12.3147C13.2201 9.93174 15.1518 8 17.5347 8C15.5851 8 14.0045 9.75612 14.0045 11.9224V23.6897C14.0045 25.6393 15.5851 27.2198 17.5347 27.2198V28.0043ZM29.302 8C31.6849 8 33.6166 9.93174 33.6166 12.3147V23.6897C33.6166 26.0726 31.6849 28.0043 29.302 28.0043V27.2198C31.2516 27.2198 32.8321 25.6393 32.8321 23.6897V11.9224C32.8321 9.75612 31.2516 8 29.302 8Z" fill="#A237C1" mask="url(#path-1-inside-1_384_95787)"/>
</g>
<g filter="url(#filter1_d_384_95787)">
<path d="M19.6226 11.9646L19.635 11.9692C19.8729 11.9577 20.0249 11.8695 20.1131 11.6937C20.208 11.5033 20.1874 11.3092 20.0383 11.162C19.8509 10.9765 19.6149 10.8487 19.3667 10.7678C19.1678 10.7027 18.9871 10.7855 18.8643 10.9576C18.7487 11.1194 18.7274 11.3098 18.8405 11.4686C19.0383 11.7461 19.3477 11.8618 19.6226 11.9646Z" fill="url(#paint1_linear_384_95787)"/>
<path d="M27.6514 10.7459C27.8953 10.7642 28.048 10.8542 28.1259 11.0367C28.2074 11.2271 28.1916 11.4212 28.0346 11.5665C27.8491 11.7387 27.624 11.8628 27.3874 11.9449C27.1884 12.0143 27.009 11.9352 26.88 11.7679C26.7577 11.6091 26.7279 11.4206 26.8399 11.2593C27.0437 10.9649 27.3655 10.8433 27.6514 10.7459Z" fill="url(#paint2_linear_384_95787)"/>
<path d="M21.5573 15.5048C21.5746 15.4043 21.5916 15.3017 21.6088 15.1977C21.6508 14.9444 21.6942 14.6826 21.7477 14.4226C21.7799 14.2644 21.7477 14.1567 21.629 14.0485C21.466 13.8995 21.3083 13.7445 21.1505 13.5893L21.1493 13.5881L21.1487 13.5874C21.0686 13.5087 20.9884 13.4299 20.9076 13.352C20.7373 13.1871 20.6278 13.0046 20.716 12.757C20.8011 12.5186 20.98 12.417 21.2227 12.3878C21.3884 12.3677 21.5536 12.3428 21.7187 12.3178C21.8839 12.2929 22.0491 12.2679 22.2149 12.2479C22.3718 12.229 22.4649 12.1603 22.5294 12.0124C22.599 11.8544 22.677 11.6999 22.7549 11.5454C22.8138 11.4288 22.8726 11.3123 22.9278 11.1943C23.0409 10.9528 23.1772 10.7484 23.4814 10.7526C23.7691 10.7563 23.9048 10.9497 24.013 11.1815C24.0554 11.2716 24.1017 11.3603 24.1479 11.449L24.1483 11.4497C24.2285 11.6037 24.3087 11.7576 24.3689 11.9188C24.4608 12.1657 24.6262 12.2466 24.8683 12.2685C25.0399 12.2839 25.2104 12.3106 25.3808 12.3373C25.5004 12.3561 25.6201 12.3748 25.74 12.3896C25.984 12.42 26.1579 12.5325 26.2358 12.7722C26.3118 13.0064 26.2115 13.1847 26.0491 13.3422C25.9962 13.3937 25.9435 13.4454 25.8909 13.4971L25.8362 13.5509L25.8342 13.5528C25.6602 13.7242 25.4862 13.8955 25.3063 14.0606C25.1962 14.1622 25.1664 14.262 25.1956 14.4086C25.2375 14.6183 25.2722 14.8294 25.307 15.0404C25.3298 15.1789 25.3526 15.3174 25.3775 15.4555C25.417 15.6757 25.3605 15.8588 25.1828 15.9945C24.9924 16.1399 24.7898 16.1295 24.5842 16.02C24.507 15.9787 24.4278 15.94 24.3487 15.9013L24.3485 15.9012C24.1903 15.8239 24.032 15.7466 23.8889 15.6477C23.6042 15.4506 23.3567 15.4433 23.0659 15.6404C22.825 15.8041 22.5549 15.9294 22.2866 16.0474C21.9089 16.2147 21.5305 15.9397 21.5573 15.5048Z" fill="url(#paint3_linear_384_95787)"/>
<path d="M21.5252 20.406C21.5254 20.6682 21.5256 20.9304 21.5256 21.1925C21.5256 21.3104 21.5256 21.4282 21.5255 21.5461L21.5249 21.9644C21.524 22.5879 21.5231 23.2115 21.5275 23.835C21.5317 24.461 21.9296 24.8558 22.5573 24.8619C23.1748 24.8673 23.7928 24.8686 24.4103 24.8613C25.0167 24.854 25.417 24.4549 25.4189 23.8448C25.4237 22.0934 25.4237 20.3415 25.4189 18.5895C25.417 17.963 25.0167 17.5694 24.389 17.5633C23.7916 17.5578 23.1942 17.5597 22.5969 17.5627C21.9131 17.5664 21.5287 17.9532 21.5262 18.6406C21.5242 19.2224 21.5247 19.8045 21.5252 20.3864V20.406Z" fill="url(#paint4_linear_384_95787)"/>
<path d="M20.5541 22.691C20.5538 22.5231 20.5535 22.3551 20.5535 22.1871C20.5535 22.0252 20.554 21.8633 20.5545 21.7014C20.5556 21.3067 20.5567 20.9118 20.5511 20.5167C20.5432 19.9108 20.1441 19.5172 19.534 19.5093C19.079 19.5032 18.6233 19.5038 18.1677 19.5093C17.557 19.5172 17.1512 19.9108 17.1476 20.5136C17.1409 21.6268 17.1409 22.7407 17.1476 23.8539C17.1512 24.4592 17.5552 24.8533 18.1647 24.8619C18.61 24.8679 19.0553 24.8667 19.5006 24.8625C20.1624 24.8564 20.5481 24.4659 20.5529 23.7967C20.5554 23.4281 20.5548 23.0596 20.5541 22.691Z" fill="url(#paint5_linear_384_95787)"/>
<path d="M29.8006 22.8759C29.8003 22.7319 29.7999 22.5879 29.7999 22.4438C29.7999 22.2914 29.8004 22.1391 29.8009 21.9867C29.802 21.6634 29.803 21.34 29.7993 21.0167C29.7914 20.4054 29.3984 20.0057 28.7944 19.9966C28.329 19.9893 27.863 19.9893 27.3977 19.9966C26.7942 20.0063 26.3976 20.4072 26.394 21.0173C26.3879 21.9584 26.3879 22.9001 26.394 23.8411C26.3982 24.4646 26.7991 24.8558 27.4287 24.8625C27.874 24.8673 28.3193 24.8673 28.7646 24.8625C29.4051 24.8552 29.7932 24.4598 29.7993 23.8101C29.8022 23.4986 29.8014 23.1873 29.8006 22.8759Z" fill="url(#paint6_linear_384_95787)"/>
<path d="M18.8539 13.1816C19.346 13.1816 19.5754 13.3349 19.5778 13.6658C19.5802 13.9986 19.3497 14.1561 18.86 14.1567C18.3514 14.1567 18.113 13.9955 18.1215 13.6567C18.13 13.327 18.3539 13.1816 18.8539 13.1816Z" fill="url(#paint7_linear_384_95787)"/>
<path d="M28.8236 13.6585C28.8163 13.3294 28.59 13.1816 28.0924 13.1822C28.0675 13.1824 28.0426 13.1822 28.0176 13.182C27.9889 13.1817 27.9601 13.1814 27.9314 13.1818C27.9145 13.1821 27.8976 13.1826 27.8807 13.1834C27.5705 13.1993 27.3703 13.3878 27.3679 13.6646C27.3655 13.939 27.568 14.1379 27.8722 14.1555C27.9239 14.1587 27.9757 14.1582 28.0275 14.1577L28.0506 14.1575C28.0617 14.1574 28.0728 14.1574 28.0839 14.1574C28.5936 14.1574 28.8315 13.9974 28.8236 13.6585Z" fill="url(#paint8_linear_384_95787)"/>
<path d="M19.649 15.3679C19.9002 15.3928 20.0529 15.4908 20.1308 15.6891C20.205 15.8771 20.1697 16.0559 20.0273 16.1897C19.843 16.3631 19.6174 16.4866 19.3801 16.5687C19.1818 16.6375 18.9993 16.5602 18.8722 16.3929C18.7517 16.2347 18.7256 16.0431 18.8344 15.8825C19.0358 15.5851 19.36 15.4671 19.649 15.3679Z" fill="url(#paint9_linear_384_95787)"/>
<path d="M26.8417 16.0821C27.0455 16.3753 27.3666 16.4994 27.6532 16.5924C27.9129 16.5742 28.0699 16.4683 28.1392 16.2725C28.2074 16.079 28.183 15.8771 28.0109 15.7499C27.8259 15.6137 27.6234 15.4938 27.4129 15.402C27.2194 15.318 27.0339 15.3898 26.897 15.5492C26.7583 15.711 26.7225 15.9105 26.8417 16.0821Z" fill="url(#paint10_linear_384_95787)"/>
</g>
<defs>
<filter id="filter0_ddi_384_95787" x="0.276097" y="0.155172" width="46.2847" height="46.2845" filterUnits="userSpaceOnUse" color-interpolation-filters="sRGB">
<feFlood flood-opacity="0" result="BackgroundImageFix"/>
<feColorMatrix in="SourceAlpha" type="matrix" values="0 0 0 0 0 0 0 0 0 0 0 0 0 0 0 0 0 0 127 0" result="hardAlpha"/>
<feOffset dy="5.49138"/>
<feGaussianBlur stdDeviation="6.6681"/>
<feComposite in2="hardAlpha" operator="out"/>
<feColorMatrix type="matrix" values="0 0 0 0 0 0 0 0 0 0 0 0 0 0 0 0 0 0 0.75 0"/>
<feBlend mode="normal" in2="BackgroundImageFix" result="effect1_dropShadow_384_95787"/>
<feColorMatrix in="SourceAlpha" type="matrix" values="0 0 0 0 0 0 0 0 0 0 0 0 0 0 0 0 0 0 127 0" result="hardAlpha"/>
<feMorphology radius="0.196121" operator="dilate" in="SourceAlpha" result="effect2_dropShadow_384_95787"/>
<feOffset dy="2.35345"/>
<feGaussianBlur stdDeviation="0.196121"/>
<feComposite in2="hardAlpha" operator="out"/>
<feColorMatrix type="matrix" values="0 0 0 0 0.269378 0 0 0 0 0.0028125 0 0 0 0 0.3375 0 0 0 1 0"/>
<feBlend mode="normal" in2="effect1_dropShadow_384_95787" result="effect2_dropShadow_384_95787"/>
<feBlend mode="normal" in="SourceGraphic" in2="effect2_dropShadow_384_95787" result="shape"/>
<feColorMatrix in="SourceAlpha" type="matrix" values="0 0 0 0 0 0 0 0 0 0 0 0 0 0 0 0 0 0 127 0" result="hardAlpha"/>
<feOffset/>
<feGaussianBlur stdDeviation="2.74569"/>
<feComposite in2="hardAlpha" operator="arithmetic" k2="-1" k3="1"/>
<feColorMatrix type="matrix" values="0 0 0 0 0 0 0 0 0 0 0 0 0 0 0 0 0 0 0.25 0"/>
<feBlend mode="normal" in2="shape" result="effect3_innerShadow_384_95787"/>
</filter>
<filter id="filter1_d_384_95787" x="17.1426" y="10.7457" width="12.6592" height="14.9051" filterUnits="userSpaceOnUse" color-interpolation-filters="sRGB">
<feFlood flood-opacity="0" result="BackgroundImageFix"/>
<feColorMatrix in="SourceAlpha" type="matrix" values="0 0 0 0 0 0 0 0 0 0 0 0 0 0 0 0 0 0 127 0" result="hardAlpha"/>
<feOffset dy="0.784483"/>
<feComposite in2="hardAlpha" operator="out"/>
<feColorMatrix type="matrix" values="0 0 0 0 0 0 0 0 0 0 0 0 0 0 0 0 0 0 0.5 0"/>
<feBlend mode="normal" in2="BackgroundImageFix" result="effect1_dropShadow_384_95787"/>
<feBlend mode="normal" in="SourceGraphic" in2="effect1_dropShadow_384_95787" result="shape"/>
</filter>
<linearGradient id="paint0_linear_384_95787" x1="23.4183" y1="7.18283" x2="23.4183" y2="31.085" gradientUnits="userSpaceOnUse">
<stop stop-color="#A84BC0"/>
<stop offset="1" stop-color="#722489"/>
</linearGradient>
<linearGradient id="paint1_linear_384_95787" x1="23.4722" y1="24.8522" x2="23.4722" y2="10.7457" gradientUnits="userSpaceOnUse">
<stop stop-color="#BD8600"/>
<stop offset="1" stop-color="#FBE794"/>
</linearGradient>
<linearGradient id="paint2_linear_384_95787" x1="23.4722" y1="24.8522" x2="23.4722" y2="10.7457" gradientUnits="userSpaceOnUse">
<stop stop-color="#BD8600"/>
<stop offset="1" stop-color="#FBE794"/>
</linearGradient>
<linearGradient id="paint3_linear_384_95787" x1="23.4722" y1="24.8522" x2="23.4722" y2="10.7457" gradientUnits="userSpaceOnUse">
<stop stop-color="#BD8600"/>
<stop offset="1" stop-color="#FBE794"/>
</linearGradient>
<linearGradient id="paint4_linear_384_95787" x1="23.4722" y1="24.8522" x2="23.4722" y2="10.7457" gradientUnits="userSpaceOnUse">
<stop stop-color="#BD8600"/>
<stop offset="1" stop-color="#FBE794"/>
</linearGradient>
<linearGradient id="paint5_linear_384_95787" x1="23.4722" y1="24.8522" x2="23.4722" y2="10.7457" gradientUnits="userSpaceOnUse">
<stop stop-color="#BD8600"/>
<stop offset="1" stop-color="#FBE794"/>
</linearGradient>
<linearGradient id="paint6_linear_384_95787" x1="23.4722" y1="24.8522" x2="23.4722" y2="10.7457" gradientUnits="userSpaceOnUse">
<stop stop-color="#BD8600"/>
<stop offset="1" stop-color="#FBE794"/>
</linearGradient>
<linearGradient id="paint7_linear_384_95787" x1="23.4722" y1="24.8522" x2="23.4722" y2="10.7457" gradientUnits="userSpaceOnUse">
<stop stop-color="#BD8600"/>
<stop offset="1" stop-color="#FBE794"/>
</linearGradient>
<linearGradient id="paint8_linear_384_95787" x1="23.4722" y1="24.8522" x2="23.4722" y2="10.7457" gradientUnits="userSpaceOnUse">
<stop stop-color="#BD8600"/>
<stop offset="1" stop-color="#FBE794"/>
</linearGradient>
<linearGradient id="paint9_linear_384_95787" x1="23.4722" y1="24.8522" x2="23.4722" y2="10.7457" gradientUnits="userSpaceOnUse">
<stop stop-color="#BD8600"/>
<stop offset="1" stop-color="#FBE794"/>
</linearGradient>
<linearGradient id="paint10_linear_384_95787" x1="23.4722" y1="24.8522" x2="23.4722" y2="10.7457" gradientUnits="userSpaceOnUse">
<stop stop-color="#BD8600"/>
<stop offset="1" stop-color="#FBE794"/>
</linearGradient>
</defs>
</svg>
